  0
SECTION
  2
HEADER
  9
$ACADVER
  1
AC1024
  9
$ACADMAINTVER
 70
     6
  9
$DWGCODEPAGE
  3
ANSI_1252
  9
$INSBASE
 10
0.0
 20
0.0
 30
0.0
  9
$EXTMIN
 10
1.000000000000000E+20
 20
1.000000000000000E+20
 30
1.000000000000000E+20
  9
$EXTMAX
 10
-1.000000000000000E+20
 20
-1.000000000000000E+20
 30
-1.000000000000000E+20
  9
$LIMMIN
 10
0.0
 20
0.0
  9
$LIMMAX
 10
12.0
 20
9.0
  9
$ORTHOMODE
 70
     0
  9
$REGENMODE
 70
     1
  9
$FILLMODE
 70
     1
  9
$QTEXTMODE
 70
     0
  9
$MIRRTEXT
 70
     1
  9
$LTSCALE
 40
1.0
  9
$ATTMODE
 70
     1
  9
$TEXTSIZE
 40
0.2
  9
$TRACEWID
 40
0.05
  9
$TEXTSTYLE
  7
Standard
  9
$CLAYER
  8
0
  9
$CELTYPE
  6
ByLayer
  9
$CECOLOR
 62
   256
  9
$CELTSCALE
 40
1.0
  9
$DISPSILH
 70
     0
  9
$DIMSCALE
 40
1.0
  9
$DIMASZ
 40
0.18
  9
$DIMEXO
 40
0.0625
  9
$DIMDLI
 40
0.38
  9
$DIMRND
 40
0.0
  9
$DIMDLE
 40
0.0
  9
$DIMEXE
 40
0.18
  9
$DIMTP
 40
0.0
  9
$DIMTM
 40
0.0
  9
$DIMTXT
 40
0.18
  9
$DIMCEN
 40
0.09
  9
$DIMTSZ
 40
0.0
  9
$DIMTOL
 70
     0
  9
$DIMLIM
 70
     0
  9
$DIMTIH
 70
     1
  9
$DIMTOH
 70
     1
  9
$DIMSE1
 70
     0
  9
$DIMSE2
 70
     0
  9
$DIMTAD
 70
     0
  9
$DIMZIN
 70
     0
  9
$DIMBLK
  1

  9
$DIMASO
 70
     1
  9
$DIMSHO
 70
     1
  9
$DIMPOST
  1

  9
$DIMAPOST
  1

  9
$DIMALT
 70
     0
  9
$DIMALTD
 70
     2
  9
$DIMALTF
 40
25.4
  9
$DIMLFAC
 40
1.0
  9
$DIMTOFL
 70
     0
  9
$DIMTVP
 40
0.0
  9
$DIMTIX
 70
     0
  9
$DIMSOXD
 70
     0
  9
$DIMSAH
 70
     0
  9
$DIMBLK1
  1

  9
$DIMBLK2
  1

  9
$DIMSTYLE
  2
Standard
  9
$DIMCLRD
 70
     0
  9
$DIMCLRE
 70
     0
  9
$DIMCLRT
 70
     0
  9
$DIMTFAC
 40
1.0
  9
$DIMGAP
 40
0.09
  9
$DIMJUST
 70
     0
  9
$DIMSD1
 70
     0
  9
$DIMSD2
 70
     0
  9
$DIMTOLJ
 70
     1
  9
$DIMTZIN
 70
     0
  9
$DIMALTZ
 70
     0
  9
$DIMALTTZ
 70
     0
  9
$DIMUPT
 70
     0
  9
$DIMDEC
 70
     4
  9
$DIMTDEC
 70
     4
  9
$DIMALTU
 70
     2
  9
$DIMALTTD
 70
     2
  9
$DIMTXSTY
  7
Standard
  9
$DIMAUNIT
 70
     0
  9
$DIMADEC
 70
     0
  9
$DIMALTRND
 40
0.0
  9
$DIMAZIN
 70
     0
  9
$DIMDSEP
 70
    46
  9
$DIMATFIT
 70
     3
  9
$DIMFRAC
 70
     0
  9
$DIMLDRBLK
  1

  9
$DIMLUNIT
 70
     2
  9
$DIMLWD
 70
    -2
  9
$DIMLWE
 70
    -2
  9
$DIMTMOVE
 70
     0
  9
$DIMFXL
 40
1.0
  9
$DIMFXLON
 70
     0
  9
$DIMJOGANG
 40
0.7853981633974483
  9
$DIMTFILL
 70
     0
  9
$DIMTFILLCLR
 70
     0
  9
$DIMARCSYM
 70
     0
  9
$DIMLTYPE
  6

  9
$DIMLTEX1
  6

  9
$DIMLTEX2
  6

  9
$DIMTXTDIRECTION
 70
     0
  9
$LUNITS
 70
     2
  9
$LUPREC
 70
     4
  9
$SKETCHINC
 40
0.1
  9
$FILLETRAD
 40
0.5
  9
$AUNITS
 70
     0
  9
$AUPREC
 70
     0
  9
$MENU
  1
.
  9
$ELEVATION
 40
0.0
  9
$PELEVATION
 40
0.0
  9
$THICKNESS
 40
0.0
  9
$LIMCHECK
 70
     0
  9
$CHAMFERA
 40
0.5
  9
$CHAMFERB
 40
0.5
  9
$CHAMFERC
 40
1.0
  9
$CHAMFERD
 40
0.0
  9
$SKPOLY
 70
     0
  9
$TDCREATE
 40
2458626.000887257
  9
$TDUCREATE
 40
2458626.292553924
  9
$TDUPDATE
 40
2458626.000887512
  9
$TDUUPDATE
 40
2458626.292554178
  9
$TDINDWG
 40
0.0000000116
  9
$TDUSRTIMER
 40
0.0000000116
  9
$USRTIMER
 70
     1
  9
$ANGBASE
 50
0.0
  9
$ANGDIR
 70
     0
  9
$PDMODE
 70
     0
  9
$PDSIZE
 40
0.0
  9
$PLINEWID
 40
0.0
  9
$SPLFRAME
 70
     0
  9
$SPLINETYPE
 70
     6
  9
$SPLINESEGS
 70
     8
  9
$HANDSEED
  5
AF
  9
$SURFTAB1
 70
     6
  9
$SURFTAB2
 70
     6
  9
$SURFTYPE
 70
     6
  9
$SURFU
 70
     6
  9
$SURFV
 70
     6
  9
$UCSBASE
  2

  9
$UCSNAME
  2

  9
$UCSORG
 10
0.0
 20
0.0
 30
0.0
  9
$UCSXDIR
 10
1.0
 20
0.0
 30
0.0
  9
$UCSYDIR
 10
0.0
 20
1.0
 30
0.0
  9
$UCSORTHOREF
  2

  9
$UCSORTHOVIEW
 70
     0
  9
$UCSORGTOP
 10
0.0
 20
0.0
 30
0.0
  9
$UCSORGBOTTOM
 10
0.0
 20
0.0
 30
0.0
  9
$UCSORGLEFT
 10
0.0
 20
0.0
 30
0.0
  9
$UCSORGRIGHT
 10
0.0
 20
0.0
 30
0.0
  9
$UCSORGFRONT
 10
0.0
 20
0.0
 30
0.0
  9
$UCSORGBACK
 10
0.0
 20
0.0
 30
0.0
  9
$PUCSBASE
  2

  9
$PUCSNAME
  2

  9
$PUCSORG
 10
0.0
 20
0.0
 30
0.0
  9
$PUCSXDIR
 10
1.0
 20
0.0
 30
0.0
  9
$PUCSYDIR
 10
0.0
 20
1.0
 30
0.0
  9
$PUCSORTHOREF
  2

  9
$PUCSORTHOVIEW
 70
     0
  9
$PUCSORGTOP
 10
0.0
 20
0.0
 30
0.0
  9
$PUCSORGBOTTOM
 10
0.0
 20
0.0
 30
0.0
  9
$PUCSORGLEFT
 10
0.0
 20
0.0
 30
0.0
  9
$PUCSORGRIGHT
 10
0.0
 20
0.0
 30
0.0
  9
$PUCSORGFRONT
 10
0.0
 20
0.0
 30
0.0
  9
$PUCSORGBACK
 10
0.0
 20
0.0
 30
0.0
  9
$USERI1
 70
     0
  9
$USERI2
 70
     0
  9
$USERI3
 70
     0
  9
$USERI4
 70
     0
  9
$USERI5
 70
     0
  9
$USERR1
 40
0.0
  9
$USERR2
 40
0.0
  9
$USERR3
 40
0.0
  9
$USERR4
 40
0.0
  9
$USERR5
 40
0.0
  9
$WORLDVIEW
 70
     1
  9
$SHADEDGE
 70
     3
  9
$SHADEDIF
 70
    70
  9
$TILEMODE
 70
     1
  9
$MAXACTVP
 70
    64
  9
$PINSBASE
 10
0.0
 20
0.0
 30
0.0
  9
$PLIMCHECK
 70
     0
  9
$PEXTMIN
 10
1.000000000000000E+20
 20
1.000000000000000E+20
 30
1.000000000000000E+20
  9
$PEXTMAX
 10
-1.000000000000000E+20
 20
-1.000000000000000E+20
 30
-1.000000000000000E+20
  9
$PLIMMIN
 10
0.0
 20
0.0
  9
$PLIMMAX
 10
12.0
 20
9.0
  9
$UNITMODE
 70
     0
  9
$VISRETAIN
 70
     1
  9
$PLINEGEN
 70
     0
  9
$PSLTSCALE
 70
     1
  9
$TREEDEPTH
 70
  3020
  9
$CMLSTYLE
  2
Standard
  9
$CMLJUST
 70
     0
  9
$CMLSCALE
 40
1.0
  9
$PROXYGRAPHICS
 70
     1
  9
$MEASUREMENT
 70
     0
  9
$CELWEIGHT
370
    -1
  9
$ENDCAPS
280
     0
  9
$JOINSTYLE
280
     0
  9
$LWDISPLAY
290
     1
  9
$INSUNITS
 70
     1
  9
$HYPERLINKBASE
  1

  9
$STYLESHEET
  1

  9
$XEDIT
290
     1
  9
$CEPSNTYPE
380
     0
  9
$PSTYLEMODE
290
     1
  9
$FINGERPRINTGUID
  2
{538683C6-004E-4E3C-9FE3-73D82A9032F0}
  9
$VERSIONGUID
  2
{FAEB1C32-E019-11D5-929B-00C0DF256EC4}
  9
$EXTNAMES
290
     1
  9
$PSVPSCALE
 40
0.0
  9
$OLESTARTUP
290
     0
  9
$SORTENTS
280
   127
  9
$INDEXCTL
280
     0
  9
$HIDETEXT
280
     1
  9
$XCLIPFRAME
280
     2
  9
$HALOGAP
280
     0
  9
$OBSCOLOR
 70
   257
  9
$OBSLTYPE
280
     0
  9
$INTERSECTIONDISPLAY
280
     0
  9
$INTERSECTIONCOLOR
 70
   257
  9
$DIMASSOC
280
     2
  9
$PROJECTNAME
  1

  9
$CAMERADISPLAY
290
     0
  9
$LENSLENGTH
 40
50.0
  9
$CAMERAHEIGHT
 40
0.0
  9
$STEPSPERSEC
 40
2.0
  9
$STEPSIZE
 40
6.0
  9
$3DDWFPREC
 40
2.0
  9
$PSOLWIDTH
 40
0.25
  9
$PSOLHEIGHT
 40
4.0
  9
$LOFTANG1
 40
1.570796326794897
  9
$LOFTANG2
 40
1.570796326794897
  9
$LOFTMAG1
 40
0.0
  9
$LOFTMAG2
 40
0.0
  9
$LOFTPARAM
 70
     7
  9
$LOFTNORMALS
280
     1
  9
$LATITUDE
 40
37.795
  9
$LONGITUDE
 40
-122.394
  9
$NORTHDIRECTION
 40
0.0
  9
$TIMEZONE
 70
 -8000
  9
$LIGHTGLYPHDISPLAY
280
     1
  9
$TILEMODELIGHTSYNCH
280
     1
  9
$CMATERIAL
347
3C
  9
$SOLIDHIST
280
     1
  9
$SHOWHIST
280
     1
  9
$DWFFRAME
280
     2
  9
$DGNFRAME
280
     2
  9
$REALWORLDSCALE
290
     1
  9
$INTERFERECOLOR
 62
   256
  9
$CSHADOW
280
     0
  9
$SHADOWPLANELOCATION
 40
0.0
  0
ENDSEC
  0
SECTION
  2
CLASSES
  0
CLASS
  1
ACDBDICTIONARYWDFLT
  2
AcDbDictionaryWithDefault
  3
ObjectDBX Classes
 90
        0
 91
        4
280
     0
281
     0
  0
CLASS
  1
VISUALSTYLE
  2
AcDbVisualStyle
  3
ObjectDBX Classes
 90
     4095
 91
        4
280
     0
281
     0
  0
CLASS
  1
MATERIAL
  2
AcDbMaterial
  3
ObjectDBX Classes
 90
     1153
 91
        4
280
     0
281
     0
  0
CLASS
  1
SUN
  2
AcDbSun
  3
SCENEOE
 90
     1024
 91
        4
280
     0
281
     0
  0
ENDSEC
  0
SECTION
  2
TABLES
  0
TABLE
  2
VPORT
  5
8
330
0
100
AcDbSymbolTable
 70
     1
  0
VPORT
  5
29
330
8
100
AcDbSymbolTableRecord
100
AcDbViewportTableRecord
  2
*Active
 70
     0
 10
0.0
 20
0.0
 11
1.0
 21
1.0
 12
0.0
 22
0.0
 13
0.0
 23
0.0
 14
0.5
 24
0.5
 15
0.5
 25
0.5
 16
0.0
 26
0.0
 36
1.0
 17
68.9703287800007
 27
-61.91249998452188
 37
0.0
 40
123.8249999690438
 41
1.113996830966982
 42
50.0
 43
0.0
 44
0.0
 50
0.0
 51
0.0
 71
     0
 72
   100
 73
     1
 74
     3
 75
     0
 76
     0
 77
     0
 78
     0
281
     0
 65
     1
110
0.0
120
0.0
130
0.0
111
1.0
121
0.0
131
0.0
112
0.0
122
1.0
132
0.0
 79
     0
146
0.0
 60
     3
 61
     5
292
     1
282
     1
141
0.0
142
0.0
 63
   250
361
3F
  0
ENDTAB
  0
TABLE
  2
LTYPE
  5
5
330
0
100
AcDbSymbolTable
 70
     1
  0
LTYPE
  5
14
330
5
100
AcDbSymbolTableRecord
100
AcDbLinetypeTableRecord
  2
ByBlock
 70
     0
  3

 72
    65
 73
     0
 40
0.0
  0
LTYPE
  5
15
330
5
100
AcDbSymbolTableRecord
100
AcDbLinetypeTableRecord
  2
ByLayer
 70
     0
  3

 72
    65
 73
     0
 40
0.0
  0
LTYPE
  5
16
330
5
100
AcDbSymbolTableRecord
100
AcDbLinetypeTableRecord
  2
Continuous
 70
     0
  3
Solid line
 72
    65
 73
     0
 40
0.0
  0
ENDTAB
  0
TABLE
  2
LAYER
  5
2
330
0
100
AcDbSymbolTable
 70
     2
  0
LAYER
  5
10
330
2
100
AcDbSymbolTableRecord
100
AcDbLayerTableRecord
  2
0
 70
     0
 62
     7
  6
Continuous
370
    -3
390
F
347
3E
  0
LAYER
  5
40
330
2
100
AcDbSymbolTableRecord
100
AcDbLayerTableRecord
  2
Capa 1
 70
     0
 62
     7
  6
Continuous
370
    -3
390
F
347
3E
  0
ENDTAB
  0
TABLE
  2
STYLE
  5
3
330
0
100
AcDbSymbolTable
 70
     1
  0
STYLE
  5
11
330
3
100
AcDbSymbolTableRecord
100
AcDbTextStyleTableRecord
  2
Standard
 70
     0
 40
0.0
 41
1.0
 50
0.0
 71
     0
 42
0.2
  3
txt
  4

  0
ENDTAB
  0
TABLE
  2
VIEW
  5
6
330
0
100
AcDbSymbolTable
 70
     0
  0
ENDTAB
  0
TABLE
  2
UCS
  5
7
330
0
100
AcDbSymbolTable
 70
     0
  0
ENDTAB
  0
TABLE
  2
APPID
  5
9
330
0
100
AcDbSymbolTable
 70
     1
  0
APPID
  5
12
330
9
100
AcDbSymbolTableRecord
100
AcDbRegAppTableRecord
  2
ACAD
 70
     0
  0
ENDTAB
  0
TABLE
  2
DIMSTYLE
  5
A
330
0
100
AcDbSymbolTable
 70
     1
100
AcDbDimStyleTable
  0
DIMSTYLE
105
27
330
A
100
AcDbSymbolTableRecord
100
AcDbDimStyleTableRecord
  2
Standard
 70
     0
178
     0
340
11
  0
ENDTAB
  0
TABLE
  2
BLOCK_RECORD
  5
1
330
0
100
AcDbSymbolTable
 70
     1
  0
BLOCK_RECORD
  5
1F
330
1
100
AcDbSymbolTableRecord
100
AcDbBlockTableRecord
  2
*Model_Space
340
22
 70
     0
280
     1
281
     0
  0
BLOCK_RECORD
  5
1B
330
1
100
AcDbSymbolTableRecord
100
AcDbBlockTableRecord
  2
*Paper_Space
340
1E
 70
     0
280
     1
281
     0
  0
BLOCK_RECORD
  5
23
330
1
100
AcDbSymbolTableRecord
100
AcDbBlockTableRecord
  2
*Paper_Space0
340
26
 70
     0
280
     1
281
     0
  0
ENDTAB
  0
ENDSEC
  0
SECTION
  2
BLOCKS
  0
BLOCK
  5
20
330
1F
100
AcDbEntity
  8
0
100
AcDbBlockBegin
  2
*Model_Space
 70
     0
 10
0.0
 20
0.0
 30
0.0
  3
*Model_Space
  1

  0
ENDBLK
  5
21
330
1F
100
AcDbEntity
  8
0
100
AcDbBlockEnd
  0
BLOCK
  5
1C
330
1B
100
AcDbEntity
 67
     1
  8
0
100
AcDbBlockBegin
  2
*Paper_Space
 70
     0
 10
0.0
 20
0.0
 30
0.0
  3
*Paper_Space
  1

  0
ENDBLK
  5
1D
330
1B
100
AcDbEntity
 67
     1
  8
0
100
AcDbBlockEnd
  0
BLOCK
  5
24
330
23
100
AcDbEntity
  8
0
100
AcDbBlockBegin
  2
*Paper_Space0
 70
     0
 10
0.0
 20
0.0
 30
0.0
  3
*Paper_Space0
  1

  0
ENDBLK
  5
25
330
23
100
AcDbEntity
  8
0
100
AcDbBlockEnd
  0
ENDSEC
  0
SECTION
  2
ENTITIES
  0
SPLINE
  5
41
330
1F
100
AcDbEntity
  8
Capa 1
370
     0
100
AcDbSpline
210
0.0
220
0.0
230
1.0
 70
    11
 71
     3
 72
   254
 73
   250
 74
     0
 42
0.0000000001
 43
0.0000000001
 12
1.0
 22
0.0
 32
0.0
 13
1.0
 23
0.0
 33
0.0
 40
0.0
 40
0.0
 40
0.0
 40
0.0
 40
1.0
 40
1.0
 40
1.0
 40
2.0
 40
2.0
 40
2.0
 40
3.0
 40
3.0
 40
3.0
 40
4.0
 40
4.0
 40
4.0
 40
5.0
 40
5.0
 40
5.0
 40
6.0
 40
6.0
 40
6.0
 40
7.0
 40
7.0
 40
7.0
 40
8.0
 40
8.0
 40
8.0
 40
9.0
 40
9.0
 40
9.0
 40
10.0
 40
10.0
 40
10.0
 40
11.0
 40
11.0
 40
11.0
 40
12.0
 40
12.0
 40
12.0
 40
13.0
 40
13.0
 40
13.0
 40
14.0
 40
14.0
 40
14.0
 40
15.0
 40
15.0
 40
15.0
 40
16.0
 40
16.0
 40
16.0
 40
17.0
 40
17.0
 40
17.0
 40
18.0
 40
18.0
 40
18.0
 40
19.0
 40
19.0
 40
19.0
 40
20.0
 40
20.0
 40
20.0
 40
21.0
 40
21.0
 40
21.0
 40
22.0
 40
22.0
 40
22.0
 40
23.0
 40
23.0
 40
23.0
 40
24.0
 40
24.0
 40
24.0
 40
25.0
 40
25.0
 40
25.0
 40
26.0
 40
26.0
 40
26.0
 40
27.0
 40
27.0
 40
27.0
 40
28.0
 40
28.0
 40
28.0
 40
29.0
 40
29.0
 40
29.0
 40
30.0
 40
30.0
 40
30.0
 40
31.0
 40
31.0
 40
31.0
 40
32.0
 40
32.0
 40
32.0
 40
33.0
 40
33.0
 40
33.0
 40
34.0
 40
34.0
 40
34.0
 40
35.0
 40
35.0
 40
35.0
 40
36.0
 40
36.0
 40
36.0
 40
37.0
 40
37.0
 40
37.0
 40
38.0
 40
38.0
 40
38.0
 40
39.0
 40
39.0
 40
39.0
 40
40.0
 40
40.0
 40
40.0
 40
41.0
 40
41.0
 40
41.0
 40
42.0
 40
42.0
 40
42.0
 40
43.0
 40
43.0
 40
43.0
 40
44.0
 40
44.0
 40
44.0
 40
45.0
 40
45.0
 40
45.0
 40
46.0
 40
46.0
 40
46.0
 40
47.0
 40
47.0
 40
47.0
 40
48.0
 40
48.0
 40
48.0
 40
49.0
 40
49.0
 40
49.0
 40
50.0
 40
50.0
 40
50.0
 40
51.0
 40
51.0
 40
51.0
 40
52.0
 40
52.0
 40
52.0
 40
53.0
 40
53.0
 40
53.0
 40
54.0
 40
54.0
 40
54.0
 40
55.0
 40
55.0
 40
55.0
 40
56.0
 40
56.0
 40
56.0
 40
57.0
 40
57.0
 40
57.0
 40
58.0
 40
58.0
 40
58.0
 40
59.0
 40
59.0
 40
59.0
 40
60.0
 40
60.0
 40
60.0
 40
61.0
 40
61.0
 40
61.0
 40
62.0
 40
62.0
 40
62.0
 40
63.0
 40
63.0
 40
63.0
 40
64.0
 40
64.0
 40
64.0
 40
65.0
 40
65.0
 40
65.0
 40
66.0
 40
66.0
 40
66.0
 40
67.0
 40
67.0
 40
67.0
 40
68.0
 40
68.0
 40
68.0
 40
69.0
 40
69.0
 40
69.0
 40
70.0
 40
70.0
 40
70.0
 40
71.0
 40
71.0
 40
71.0
 40
72.0
 40
72.0
 40
72.0
 40
73.0
 40
73.0
 40
73.0
 40
74.0
 40
74.0
 40
74.0
 40
75.0
 40
75.0
 40
75.0
 40
76.0
 40
76.0
 40
76.0
 40
77.0
 40
77.0
 40
77.0
 40
78.0
 40
78.0
 40
78.0
 40
79.0
 40
79.0
 40
79.0
 40
80.0
 40
80.0
 40
80.0
 40
81.0
 40
81.0
 40
81.0
 40
82.0
 40
82.0
 40
82.0
 40
83.0
 40
83.0
 40
83.0
 40
83.0
 10
137.1940742500487
 20
-42.28475891966484
 30
0.0
 10
137.1939909207703
 20
-42.21017921155025
 30
0.0
 10
137.1768250885106
 20
-42.13909933331395
 30
0.0
 10
137.1649090010676
 20
-42.06685284512025
 30
0.0
 10
137.1574926948967
 20
-42.02202169096929
 30
0.0
 10
137.1585343109337
 20
-41.97519063403014
 30
0.0
 10
137.1468265466991
 20
-41.93160941912039
 30
0.0
 10
137.1259108967161
 20
-41.8539048629023
 30
0.0
 10
137.0892876769202
 20
-41.78261666145757
 30
0.0
 10
137.0553309941737
 20
-41.71032850862309
 30
0.0
 10
137.0390817840274
 20
-41.67583018553902
 30
0.0
 10
137.0304155386182
 20
-41.6378320325773
 30
0.0
 10
137.0113747974911
 20
-41.60479197194446
 30
0.0
 10
136.9660436676466
 20
-41.52617079361497
 30
0.0
 10
136.9065048950785
 20
-41.45684083031829
 30
0.0
 10
136.8461744943247
 20
-41.38846915377347
 30
0.0
 10
136.8281337045963
 20
-41.36801181484202
 30
0.0
 10
136.8159676293066
 20
-41.34322135320631
 30
0.0
 10
136.7966352356941
 20
-41.32380563031407
 30
0.0
 10
136.7127643125524
 20
-41.23951806075208
 30
0.0
 10
136.6172272898093
 20
-41.16547999297669
 30
0.0
 10
136.5114407652827
 20
-41.10448295795968
 30
0.0
 10
136.5114407652827
 20
-41.10448295795968
 30
0.0
 10
105.519280585865
 20
-23.21101940183811
 30
0.0
 10
105.519280585865
 20
-23.21101940183811
 30
0.0
 10
105.0956345120659
 20
-22.96636462751234
 30
0.0
 10
104.5736598845479
 20
-22.96703126177358
 30
0.0
 10
104.150680445009
 20
-23.21301930462662
 30
0.0
 10
104.150680445009
 20
-23.21301930462662
 30
0.0
 10
101.3360255949345
 20
-24.84868979688339
 30
0.0
 10
101.3360255949345
 20
-24.84868979688339
 30
0.0
 10
101.3360255949345
 20
-24.84868979688339
 30
0.0
 10
101.3498165912386
 20
-19.9935091340222
 30
0.0
 10
101.3498165912386
 20
-19.9935091340222
 30
0.0
 10
101.3498165912386
 20
-19.9935091340222
 30
0.0
 10
101.3494416094693
 20
-19.99050927983976
 30
0.0
 10
101.3494416094693
 20
-19.99050927983976
 30
0.0
 10
101.3494416094693
 20
-19.98946766380537
 30
0.0
 10
101.3498165912386
 20
-19.98855104169493
 30
0.0
 10
101.3498165912386
 20
-19.98855104169493
 30
0.0
 10
101.3497332619545
 20
-19.91259640041453
 30
0.0
 10
101.3325674296938
 20
-19.84118320504585
 30
0.0
 10
101.3205263483336
 20
-19.76864506436184
 30
0.0
 10
101.3131517068029
 20
-19.72414722734165
 30
0.0
 10
101.3141933228398
 20
-19.67760782289442
 30
0.0
 10
101.3025688878887
 20
-19.63440158975655
 30
0.0
 10
101.280361634017
 20
-19.55203059369957
 30
0.0
 10
101.2424468103426
 20
-19.47611761705996
 30
0.0
 10
101.2056152673389
 20
-19.3998713232915
 30
0.0
 10
101.1911576367685
 20
-19.36991444612074
 30
0.0
 10
101.1838246598818
 20
-19.3366243976387
 30
0.0
 10
101.1672421326047
 20
-19.30783413042822
 30
0.0
 10
101.1138280623229
 20
-19.21517196794547
 30
0.0
 10
101.0465396664594
 20
-19.13100939230776
 30
0.0
 10
100.9725015986805
 20
-19.05284652503396
 30
0.0
 10
100.964960298587
 20
-19.04488857852618
 30
0.0
 10
100.9603355233918
 20
-19.03463907674183
 30
0.0
 10
100.9525859000853
 20
-19.02684778879687
 30
0.0
 10
100.8686733122988
 20
-18.94243522531317
 30
0.0
 10
100.7730529602779
 20
-18.86835549289539
 30
0.0
 10
100.6671831064672
 20
-18.80723346395473
 30
0.0
 10
100.6671831064672
 20
-18.80723346395473
 30
0.0
 10
69.67468960992194
 20
-0.9137699078328447
 30
0.0
 10
69.67468960992194
 20
-0.9137699078328447
 30
0.0
 10
69.25071021898782
 20
-0.6687818163743764
 30
0.0
 10
68.72873559147244
 20
-0.6697817677705543
 30
0.0
 10
68.30608946906722
 20
-0.9157698106213503
 30
0.0
 10
68.30608946906722
 20
-0.9157698106213503
 30
0.0
 10
37.52046091708993
 20
-18.80631684184365
 30
0.0
 10
37.52046091708993
 20
-18.80631684184365
 30
0.0
 10
37.52046091708993
 20
-18.80631684184365
 30
0.0
 10
37.51991927675041
 20
-18.80656682969125
 30
0.0
 10
37.51991927675041
 20
-18.80656682969125
 30
0.0
 10
37.51991927675041
 20
-18.80656682969125
 30
0.0
 10
37.5194193010549
 20
-18.80694181146442
 30
0.0
 10
37.5194193010549
 20
-18.80694181146442
 30
0.0
 10
37.5194193010549
 20
-18.80694181146442
 30
0.0
 10
37.51491951978557
 20
-18.80956668387273
 30
0.0
 10
37.51491951978557
 20
-18.80956668387273
 30
0.0
 10
37.47112998166804
 20
-18.83502377977095
 30
0.0
 10
37.43700664035553
 20
-18.87118868851147
 30
0.0
 10
37.39684192604216
 20
-18.90089557783078
 30
0.0
 10
37.34105297120291
 20
-18.94218523746396
 30
0.0
 10
37.28118088150346
 20
-18.97901678046379
 30
0.0
 10
37.23284989747582
 20
-19.0276394169843
 30
0.0
 10
37.20097644680006
 20
-19.05972119086496
 30
0.0
 10
37.179269168629
 20
-19.09946925876405
 30
0.0
 10
37.15085388319201
 20
-19.13434256362033
 30
0.0
 10
37.10477278979759
 20
-19.19100647593084
 30
0.0
 10
37.0548585493954
 20
-19.24500385119066
 30
0.0
 10
37.01848531744902
 20
-19.30808411827775
 30
0.0
 10
36.99577808788435
 20
-19.34745720440592
 30
0.0
 10
36.98461196398635
 20
-19.39233002319671
 30
0.0
 10
36.9659045399987
 20
-19.4338280060367
 30
0.0
 10
36.93623931531985
 20
-19.49965813945639
 30
0.0
 10
36.90224096793002
 20
-19.56361336401088
 30
0.0
 10
36.88324189144916
 20
-19.63377662013579
 30
0.0
 10
36.86940923050431
 20
-19.68498246442126
 30
0.0
 10
36.86957588907034
 20
-19.73981313250898
 30
0.0
 10
36.8617429364862
 20
-19.79281055637743
 30
0.0
 10
36.85224339824593
 20
-19.8570990980643
 30
0.0
 10
36.83578586489149
 20
-19.91976271873713
 30
0.0
 10
36.83561920632354
 20
-19.98584284000473
 30
0.0
 10
36.83561920632354
 20
-19.98584284000473
 30
0.0
 10
36.82161988681394
 20
-24.93222740289937
 30
0.0
 10
36.82161988681394
 20
-24.93222740289937
 30
0.0
 10
36.82161988681394
 20
-24.93222740289937
 30
0.0
 10
33.84043146504221
 20
-23.21101940183811
 30
0.0
 10
33.84043146504221
 20
-23.21101940183811
 30
0.0
 10
33.4167853912408
 20
-22.96636462751234
 30
0.0
 10
32.89481076372542
 20
-22.96703126177358
 30
0.0
 10
32.47183132418749
 20
-23.21301930462662
 30
0.0
 10
32.47183132418749
 20
-23.21301930462662
 30
0.0
 10
1.682202966639614
 20
-41.10589955576756
 30
0.0
 10
1.682202966639614
 20
-41.10589955576756
 30
0.0
 10
1.682202966639614
 20
-41.10589955576756
 30
0.0
 10
1.681661326301061
 20
-41.10614954361709
 30
0.0
 10
1.681661326301061
 20
-41.10614954361709
 30
0.0
 10
1.681661326301061
 20
-41.10614954361709
 30
0.0
 10
1.68116135060233
 20
-41.10652452538865
 30
0.0
 10
1.68116135060233
 20
-41.10652452538865
 30
0.0
 10
1.68116135060233
 20
-41.10652452538865
 30
0.0
 10
1.67666156933108
 20
-41.10914939779727
 30
0.0
 10
1.67666156933108
 20
-41.10914939779727
 30
0.0
 10
1.632872031216439
 20
-41.13460649369454
 30
0.0
 10
1.598748689905208
 20
-41.17077140243313
 30
0.0
 10
1.5585839755896
 20
-41.20047829175661
 30
0.0
 10
1.502795020750342
 20
-41.24176795138722
 30
0.0
 10
1.442922931053143
 20
-41.27859949438994
 30
0.0
 10
1.394591947024221
 20
-41.32722213090821
 30
0.0
 10
1.362718496348454
 20
-41.35930390478887
 30
0.0
 10
1.341011218176433
 20
-41.3990519726902
 30
0.0
 10
1.312595932739446
 20
-41.43392527754649
 30
0.0
 10
1.266514839345988
 20
-41.49058918985475
 30
0.0
 10
1.216600598941548
 20
-41.54458656511552
 30
0.0
 10
1.180227366995494
 20
-41.60766683220262
 30
0.0
 10
1.15752013743275
 20
-41.64703991832918
 30
0.0
 10
1.146354013536035
 20
-41.69191273712061
 30
0.0
 10
1.127646589546131
 20
-41.73341071996125
 30
0.0
 10
1.097981364865043
 20
-41.79924085338029
 30
0.0
 10
1.063983017479698
 20
-41.86319607793479
 30
0.0
 10
1.044983940998841
 20
-41.93335933405969
 30
0.0
 10
1.031151280050786
 20
-41.98456517834677
 30
0.0
 10
1.031317938617778
 20
-42.03939584643513
 30
0.0
 10
1.023484986032673
 20
-42.09239327030101
 30
0.0
 10
1.013985447793367
 20
-42.15668181198661
 30
0.0
 10
0.9975279144389272
 20
-42.2193454326591
 30
0.0
 10
0.9973612558732184
 20
-42.28542555392639
 30
0.0
 10
0.9973612558732184
 20
-42.28542555392639
 30
0.0
 10
0.8946995794533856
 20
-78.45533404995852
 30
0.0
 10
0.8946995794533856
 20
-78.45533404995852
 30
0.0
 10
0.8933663109277152
 20
-78.9446435986123
 30
0.0
 10
1.153686990421447
 20
-79.39695494569926
 30
0.0
 10
1.577333064222856
 20
-79.64160972002503
 30
0.0
 10
1.577333064222856
 20
-79.64160972002503
 30
0.0
 10
32.56982656077101
 20
-97.5350732761469
 30
0.0
 10
32.56982656077101
 20
-97.5350732761469
 30
0.0
 10
32.78114962197458
 20
-97.65706734617933
 30
0.0
 10
33.01680483375753
 20
-97.7180643811986
 30
0.0
 10
33.25246004554047
 20
-97.7180643811986
 30
0.0
 10
33.37049597463989
 20
-97.7180643811986
 30
0.0
 10
33.48849023909723
 20
-97.70256513459314
 30
0.0
 10
33.60344298473263
 20
-97.67198328780097
 30
0.0
 10
33.6372746735542
 20
-97.66298372525719
 30
0.0
 10
33.66810650819396
 20
-97.6433180145151
 30
0.0
 10
33.70131322739218
 20
-97.631693579563
 30
0.0
 10
33.78005939964532
 20
-97.60406992231282
 30
0.0
 10
33.85963886472956
 20
-97.57857116177284
 30
0.0
 10
33.93342694465671
 20
-97.53607322754084
 30
0.0
 10
33.93342694465671
 20
-97.53607322754084
 30
0.0
 10
33.93509353031315
 20
-97.53465662973328
 30
0.0
 10
33.93605181706405
 20
-97.53407332475298
 30
0.0
 10
33.93605181706405
 20
-97.53407332475298
 30
0.0
 10
33.9384267016238
 20
-97.53307337336098
 30
0.0
 10
33.9384267016238
 20
-97.53307337336098
 30
0.0
 10
33.9384267016238
 20
-97.53307337336098
 30
0.0
 10
36.7554147716211
 20
-95.8960279479387
 30
0.0
 10
36.7554147716211
 20
-95.8960279479387
 30
0.0
 10
36.7554147716211
 20
-95.8960279479387
 30
0.0
 10
36.73329084703641
 20
-103.713772937862
 30
0.0
 10
36.73329084703641
 20
-103.713772937862
 30
0.0
 10
36.73195757850977
 20
-104.2030824865155
 30
0.0
 10
36.99227825800575
 20
-104.6553938336018
 30
0.0
 10
37.41592433180588
 20
-104.9000486079295
 30
0.0
 10
37.41592433180588
 20
-104.9000486079295
 30
0.0
 10
68.40808451122486
 20
-122.7935121640504
 30
0.0
 10
68.40808451122486
 20
-122.7935121640504
 30
0.0
 10
68.61940757242618
 20
-122.9155062340825
 30
0.0
 10
68.85506278421137
 20
-122.9765032690976
 30
0.0
 10
69.090717995994
 20
-122.9765032690976
 30
0.0
 10
69.20875392509245
 20
-122.9765032690976
 30
0.0
 10
69.32674818954851
 20
-122.9610040224953
 30
0.0
 10
69.44170093518392
 20
-122.9304221757064
 30
0.0
 10
69.4755326240058
 20
-122.9214226131626
 30
0.0
 10
69.5063644586446
 20
-122.9017569024173
 30
0.0
 10
69.53957117784475
 20
-122.8901324674694
 30
0.0
 10
69.61831735009692
 20
-122.8625088102153
 30
0.0
 10
69.69789681518213
 20
-122.8370100496751
 30
0.0
 10
69.77168489510927
 20
-122.7945121154453
 30
0.0
 10
69.77264318186242
 20
-122.7939704751048
 30
0.0
 10
69.77335148076347
 20
-122.7930955176377
 30
0.0
 10
69.77430976751886
 20
-122.7925122126542
 30
0.0
 10
69.77430976751886
 20
-122.7925122126542
 30
0.0
 10
69.77593468853324
 20
-122.7919705723189
 30
0.0
 10
69.77668465207829
 20
-122.7915122612635
 30
0.0
 10
69.77668465207829
 20
-122.7915122612635
 30
0.0
 10
100.5678546013577
 20
-104.8977153880108
 30
0.0
 10
100.5678546013577
 20
-104.8977153880108
 30
0.0
 10
100.9871675524536
 20
-104.6540605650771
 30
0.0
 10
101.245821646294
 20
-104.2064156578293
 30
0.0
 10
101.2471549148165
 20
-103.7214392318801
 30
0.0
 10
101.2471549148165
 20
-103.7214392318801
 30
0.0
 10
101.2696121565349
 20
-95.81528187289675
 30
0.0
 10
101.2696121565349
 20
-95.81528187289675
 30
0.0
 10
101.2696121565349
 20
-95.81528187289675
 30
0.0
 10
104.2483423644653
 20
-97.5350732761469
 30
0.0
 10
104.2483423644653
 20
-97.5350732761469
 30
0.0
 10
104.4596654256666
 20
-97.65706734617933
 30
0.0
 10
104.6953206374464
 20
-97.7180643811986
 30
0.0
 10
104.9309758492315
 20
-97.7180643811986
 30
0.0
 10
105.0490117783319
 20
-97.7180643811986
 30
0.0
 10
105.167006042787
 20
-97.70256513459314
 30
0.0
 10
105.2819587884266
 20
-97.67198328780097
 30
0.0
 10
105.3157904772494
 20
-97.66298372525719
 30
0.0
 10
105.3466223118841
 20
-97.6433180145151
 30
0.0
 10
105.3798290310842
 20
-97.631693579563
 30
0.0
 10
105.4585752033364
 20
-97.60406992231282
 30
0.0
 10
105.5381546684187
 20
-97.57857116177284
 30
0.0
 10
105.6119427483446
 20
-97.53607322754084
 30
0.0
 10
105.6129010350968
 20
-97.53553158720261
 30
0.0
 10
105.6136093340029
 20
-97.53465662973328
 30
0.0
 10
105.6136093340029
 20
-97.53465662973328
 30
0.0
 10
105.6153175843015
 20
-97.53365667833936
 30
0.0
 10
105.6161925417708
 20
-97.53353168441443
 30
0.0
 10
105.6161925417708
 20
-97.53353168441443
 30
0.0
 10
105.6161925417708
 20
-97.53353168441443
 30
0.0
 10
136.4124455773037
 20
-79.63660996305825
 30
0.0
 10
136.4124455773037
 20
-79.63660996305825
 30
0.0
 10
136.8317585283999
 20
-79.39295514012545
 30
0.0
 10
137.0904126222413
 20
-78.94531023287546
 30
0.0
 10
137.0917458907638
 20
-78.46033380692754
 30
0.0
 10
137.0917458907638
 20
-78.46033380692754
 30
0.0
 10
137.1940742500487
 20
-42.29075862802779
 30
0.0
 10
137.1940742500487
 20
-42.29075862802779
 30
0.0
 10
137.1940742500487
 20
-42.28971701199275
 30
0.0
 10
137.1936992682797
 20
-42.28880038988232
 30
0.0
 10
137.1936992682797
 20
-42.28775877384792
 30
0.0
 10
137.1936992682797
 20
-42.28775877384792
 30
0.0
 10
137.1940742500487
 20
-42.28475891966484
 30
0.0
 10
137.1940742500487
 20
-42.28475891966484
 30
0.0
  0
POLYLINE
  5
42
330
1F
100
AcDbEntity
  8
Capa 1
370
     0
100
AcDb2dPolyline
 66
     1
 10
0.0
 20
0.0
 30
0.0
  0
VERTEX
  5
43
330
42
100
AcDbEntity
  8
Capa 1
370
     0
100
AcDbVertex
100
AcDb2dVertex
 10
134.3635451715975
 20
-77.66937225450606
 30
0.0
  0
VERTEX
  5
44
330
42
100
AcDbEntity
  8
Capa 1
370
     0
100
AcDbVertex
100
AcDb2dVertex
 10
106.3029924906839
 20
-93.9762046013034
 30
0.0
  0
VERTEX
  5
45
330
42
100
AcDbEntity
  8
Capa 1
370
     0
100
AcDbVertex
100
AcDb2dVertex
 10
106.3966962691998
 20
-60.970100650318
 30
0.0
  0
VERTEX
  5
46
330
42
100
AcDbEntity
  8
Capa 1
370
     0
100
AcDbVertex
100
AcDb2dVertex
 10
134.4568739683437
 20
-44.66330996816273
 30
0.0
  0
VERTEX
  5
47
330
42
100
AcDbEntity
  8
Capa 1
370
     0
100
AcDbVertex
100
AcDb2dVertex
 10
134.3635451715975
 20
-77.66937225450606
 30
0.0
  0
SEQEND
  5
48
330
42
100
AcDbEntity
  8
Capa 1
370
     0
  0
POLYLINE
  5
49
330
1F
100
AcDbEntity
  8
Capa 1
370
     0
100
AcDb2dPolyline
 66
     1
 10
0.0
 20
0.0
 30
0.0
  0
VERTEX
  5
4A
330
49
100
AcDbEntity
  8
Capa 1
370
     0
100
AcDbVertex
100
AcDb2dVertex
 10
98.54361966336516
 20
-94.24144170848425
 30
0.0
  0
VERTEX
  5
4B
330
49
100
AcDbEntity
  8
Capa 1
370
     0
100
AcDbVertex
100
AcDb2dVertex
 10
98.51895419565663
 20
-102.9304776794574
 30
0.0
  0
VERTEX
  5
4C
330
49
100
AcDbEntity
  8
Capa 1
370
     0
100
AcDbVertex
100
AcDb2dVertex
 10
70.4627346374464
 20
-119.2346434892056
 30
0.0
  0
VERTEX
  5
4D
330
49
100
AcDbEntity
  8
Capa 1
370
     0
100
AcDbVertex
100
AcDb2dVertex
 10
70.55643841596323
 20
-86.22853953822214
 30
0.0
  0
VERTEX
  5
4E
330
49
100
AcDbEntity
  8
Capa 1
370
     0
100
AcDbVertex
100
AcDb2dVertex
 10
77.58763830545249
 20
-82.14257148497121
 30
0.0
  0
VERTEX
  5
4F
330
49
100
AcDbEntity
  8
Capa 1
370
     0
100
AcDbVertex
100
AcDb2dVertex
 10
78.94844715836193
 20
-81.35173492647242
 30
0.0
  0
VERTEX
  5
50
330
49
100
AcDbEntity
  8
Capa 1
370
     0
100
AcDbVertex
100
AcDb2dVertex
 10
80.30925601127329
 20
-80.56094003261569
 30
0.0
  0
VERTEX
  5
51
330
49
100
AcDbEntity
  8
Capa 1
370
     0
100
AcDbVertex
100
AcDb2dVertex
 10
98.61261630953236
 20
-69.924415393115
 30
0.0
  0
VERTEX
  5
52
330
49
100
AcDbEntity
  8
Capa 1
370
     0
100
AcDbVertex
100
AcDb2dVertex
 10
98.55253589662641
 20
-91.09371971501943
 30
0.0
  0
VERTEX
  5
53
330
49
100
AcDbEntity
  8
Capa 1
370
     0
100
AcDbVertex
100
AcDb2dVertex
 10
98.54807777999916
 20
-92.66755987943193
 30
0.0
  0
VERTEX
  5
54
330
49
100
AcDbEntity
  8
Capa 1
370
     0
100
AcDbVertex
100
AcDb2dVertex
 10
98.54361966336516
 20
-94.24144170848425
 30
0.0
  0
SEQEND
  5
55
330
49
100
AcDbEntity
  8
Capa 1
370
     0
  0
POLYLINE
  5
56
330
1F
100
AcDbEntity
  8
Capa 1
370
     0
100
AcDb2dPolyline
 66
     1
 10
0.0
 20
0.0
 30
0.0
  0
VERTEX
  5
57
330
56
100
AcDbEntity
  8
Capa 1
370
     0
100
AcDbVertex
100
AcDb2dVertex
 10
36.81270365355173
 20
-28.08003272564415
 30
0.0
  0
VERTEX
  5
58
330
56
100
AcDbEntity
  8
Capa 1
370
     0
100
AcDbVertex
100
AcDb2dVertex
 10
38.17580406173999
 20
-28.86703613713614
 30
0.0
  0
VERTEX
  5
59
330
56
100
AcDbEntity
  8
Capa 1
370
     0
100
AcDbVertex
100
AcDb2dVertex
 10
39.53886280528618
 20
-29.65395621934174
 30
0.0
  0
VERTEX
  5
5A
330
56
100
AcDbEntity
  8
Capa 1
370
     0
100
AcDbVertex
100
AcDb2dVertex
 10
61.42642388036333
 20
-42.29075862802779
 30
0.0
  0
VERTEX
  5
5B
330
56
100
AcDbEntity
  8
Capa 1
370
     0
100
AcDbVertex
100
AcDb2dVertex
 10
39.46707462814722
 20
-55.05209664987397
 30
0.0
  0
VERTEX
  5
5C
330
56
100
AcDbEntity
  8
Capa 1
370
     0
100
AcDbVertex
100
AcDb2dVertex
 10
38.09930778012072
 20
-55.8469330139456
 30
0.0
  0
VERTEX
  5
5D
330
56
100
AcDbEntity
  8
Capa 1
370
     0
100
AcDbVertex
100
AcDb2dVertex
 10
36.81349528173917
 20
-56.59418835753401
 30
0.0
  0
VERTEX
  5
5E
330
56
100
AcDbEntity
  8
Capa 1
370
     0
100
AcDbVertex
100
AcDb2dVertex
 10
33.35278850204391
 20
-58.60529893348531
 30
0.0
  0
VERTEX
  5
5F
330
56
100
AcDbEntity
  8
Capa 1
370
     0
100
AcDbVertex
100
AcDb2dVertex
 10
5.086495821871958
 20
-42.28542555392639
 30
0.0
  0
VERTEX
  5
60
330
56
100
AcDbEntity
  8
Capa 1
370
     0
100
AcDbVertex
100
AcDb2dVertex
 10
33.16013120018913
 20
-25.97121856560157
 30
0.0
  0
VERTEX
  5
61
330
56
100
AcDbEntity
  8
Capa 1
370
     0
100
AcDbVertex
100
AcDb2dVertex
 10
36.81270365355173
 20
-28.08003272564415
 30
0.0
  0
SEQEND
  5
62
330
56
100
AcDbEntity
  8
Capa 1
370
     0
  0
POLYLINE
  5
63
330
1F
100
AcDbEntity
  8
Capa 1
370
     0
100
AcDb2dPolyline
 66
     1
 10
0.0
 20
0.0
 30
0.0
  0
VERTEX
  5
64
330
63
100
AcDbEntity
  8
Capa 1
370
     0
100
AcDbVertex
100
AcDb2dVertex
 10
97.26068202523889
 20
-19.9935091340222
 30
0.0
  0
VERTEX
  5
65
330
63
100
AcDbEntity
  8
Capa 1
370
     0
100
AcDbVertex
100
AcDb2dVertex
 10
69.19104645249648
 20
-36.30538290243062
 30
0.0
  0
VERTEX
  5
66
330
63
100
AcDbEntity
  8
Capa 1
370
     0
100
AcDbVertex
100
AcDb2dVertex
 10
40.92475377232324
 20
-19.98584284000473
 30
0.0
  0
VERTEX
  5
67
330
63
100
AcDbEntity
  8
Capa 1
370
     0
100
AcDbVertex
100
AcDb2dVertex
 10
68.99438934506566
 20
-3.673969071596307
 30
0.0
  0
VERTEX
  5
68
330
63
100
AcDbEntity
  8
Capa 1
370
     0
100
AcDbVertex
100
AcDb2dVertex
 10
97.26068202523889
 20
-19.9935091340222
 30
0.0
  0
SEQEND
  5
69
330
63
100
AcDbEntity
  8
Capa 1
370
     0
  0
POLYLINE
  5
6A
330
1F
100
AcDbEntity
  8
Capa 1
370
     0
100
AcDb2dPolyline
 66
     1
 10
0.0
 20
0.0
 30
0.0
  0
VERTEX
  5
6B
330
6A
100
AcDbEntity
  8
Capa 1
370
     0
100
AcDbVertex
100
AcDb2dVertex
 10
133.104939684055
 20
-42.29075862802779
 30
0.0
  0
VERTEX
  5
6C
330
6A
100
AcDbEntity
  8
Capa 1
370
     0
100
AcDbVertex
100
AcDb2dVertex
 10
105.0313043057392
 20
-58.60529893348531
 30
0.0
  0
VERTEX
  5
6D
330
6A
100
AcDbEntity
  8
Capa 1
370
     0
100
AcDbVertex
100
AcDb2dVertex
 10
101.2149481470145
 20
-56.40190603745304
 30
0.0
  0
VERTEX
  5
6E
330
6A
100
AcDbEntity
  8
Capa 1
370
     0
100
AcDbVertex
100
AcDb2dVertex
 10
99.88338787237055
 20
-55.63306840961593
 30
0.0
  0
VERTEX
  5
6F
330
6A
100
AcDbEntity
  8
Capa 1
370
     0
100
AcDbVertex
100
AcDb2dVertex
 10
98.52045412274704
 20
-54.84618999205047
 30
0.0
  0
VERTEX
  5
70
330
6A
100
AcDbEntity
  8
Capa 1
370
     0
100
AcDbVertex
100
AcDb2dVertex
 10
76.76501162556303
 20
-42.28542555392639
 30
0.0
  0
VERTEX
  5
71
330
6A
100
AcDbEntity
  8
Capa 1
370
     0
100
AcDbVertex
100
AcDb2dVertex
 10
98.59207564132029
 20
-29.60137544188693
 30
0.0
  0
VERTEX
  5
72
330
6A
100
AcDbEntity
  8
Capa 1
370
     0
100
AcDbVertex
100
AcDb2dVertex
 10
99.9594258429322
 20
-28.80678906566289
 30
0.0
  0
VERTEX
  5
73
330
6A
100
AcDbEntity
  8
Capa 1
370
     0
100
AcDbVertex
100
AcDb2dVertex
 10
101.3270676970296
 20
-28.01203603087217
 30
0.0
  0
VERTEX
  5
74
330
6A
100
AcDbEntity
  8
Capa 1
370
     0
100
AcDbVertex
100
AcDb2dVertex
 10
104.8389803210142
 20
-25.97121856560157
 30
0.0
  0
VERTEX
  5
75
330
6A
100
AcDbEntity
  8
Capa 1
370
     0
100
AcDbVertex
100
AcDb2dVertex
 10
133.104939684055
 20
-42.29075862802779
 30
0.0
  0
SEQEND
  5
76
330
6A
100
AcDbEntity
  8
Capa 1
370
     0
  0
POLYLINE
  5
77
330
1F
100
AcDbEntity
  8
Capa 1
370
     0
100
AcDb2dPolyline
 66
     1
 10
0.0
 20
0.0
 30
0.0
  0
VERTEX
  5
78
330
77
100
AcDbEntity
  8
Capa 1
370
     0
100
AcDbVertex
100
AcDb2dVertex
 10
77.58305519489903
 20
-78.98697487427923
 30
0.0
  0
VERTEX
  5
79
330
77
100
AcDbEntity
  8
Capa 1
370
     0
100
AcDbVertex
100
AcDb2dVertex
 10
76.22224634198767
 20
-79.77776976813725
 30
0.0
  0
VERTEX
  5
7A
330
77
100
AcDbEntity
  8
Capa 1
370
     0
100
AcDbVertex
100
AcDb2dVertex
 10
74.86139582443391
 20
-80.5685646619927
 30
0.0
  0
VERTEX
  5
7B
330
77
100
AcDbEntity
  8
Capa 1
370
     0
100
AcDbVertex
100
AcDb2dVertex
 10
69.19104645249648
 20
-83.86373782138912
 30
0.0
  0
VERTEX
  5
7C
330
77
100
AcDbEntity
  8
Capa 1
370
     0
100
AcDbVertex
100
AcDb2dVertex
 10
63.30637416517303
 20
-80.46623630270268
 30
0.0
  0
VERTEX
  5
7D
330
77
100
AcDbEntity
  8
Capa 1
370
     0
100
AcDbVertex
100
AcDb2dVertex
 10
61.94352374483494
 20
-79.67939954978313
 30
0.0
  0
VERTEX
  5
7E
330
77
100
AcDbEntity
  8
Capa 1
370
     0
100
AcDbVertex
100
AcDb2dVertex
 10
60.58046500128843
 20
-78.89239613829115
 30
0.0
  0
VERTEX
  5
7F
330
77
100
AcDbEntity
  8
Capa 1
370
     0
100
AcDbVertex
100
AcDb2dVertex
 10
40.92475377232324
 20
-67.54419775896355
 30
0.0
  0
VERTEX
  5
80
330
77
100
AcDbEntity
  8
Capa 1
370
     0
100
AcDbVertex
100
AcDb2dVertex
 10
47.98286902016132
 20
-63.44256380054371
 30
0.0
  0
VERTEX
  5
81
330
77
100
AcDbEntity
  8
Capa 1
370
     0
100
AcDbVertex
100
AcDb2dVertex
 10
49.34355287914776
 20
-62.65185223596759
 30
0.0
  0
VERTEX
  5
82
330
77
100
AcDbEntity
  8
Capa 1
370
     0
100
AcDbVertex
100
AcDb2dVertex
 10
50.70448672598437
 20
-61.86097401282736
 30
0.0
  0
VERTEX
  5
83
330
77
100
AcDbEntity
  8
Capa 1
370
     0
100
AcDbVertex
100
AcDb2dVertex
 10
62.74952623280522
 20
-54.86135592152291
 30
0.0
  0
VERTEX
  5
84
330
77
100
AcDbEntity
  8
Capa 1
370
     0
100
AcDbVertex
100
AcDb2dVertex
 10
64.11700142833787
 20
-54.06668621601602
 30
0.0
  0
VERTEX
  5
85
330
77
100
AcDbEntity
  8
Capa 1
370
     0
100
AcDbVertex
100
AcDb2dVertex
 10
65.48447662387471
 20
-53.27201651050848
 30
0.0
  0
VERTEX
  5
86
330
77
100
AcDbEntity
  8
Capa 1
370
     0
100
AcDbVertex
100
AcDb2dVertex
 10
67.78815631176641
 20
-51.93328991754166
 30
0.0
  0
VERTEX
  5
87
330
77
100
AcDbEntity
  8
Capa 1
370
     0
100
AcDbVertex
100
AcDb2dVertex
 10
67.7882396410496
 20
-51.93324825290183
 30
0.0
  0
VERTEX
  5
88
330
77
100
AcDbEntity
  8
Capa 1
370
     0
100
AcDbVertex
100
AcDb2dVertex
 10
68.99438934506566
 20
-51.23232399055545
 30
0.0
  0
VERTEX
  5
89
330
77
100
AcDbEntity
  8
Capa 1
370
     0
100
AcDbVertex
100
AcDb2dVertex
 10
69.1552981901728
 20
-51.32523614088485
 30
0.0
  0
VERTEX
  5
8A
330
77
100
AcDbEntity
  8
Capa 1
370
     0
100
AcDbVertex
100
AcDb2dVertex
 10
70.51814861050993
 20
-52.11207289380985
 30
0.0
  0
VERTEX
  5
8B
330
77
100
AcDbEntity
  8
Capa 1
370
     0
100
AcDbVertex
100
AcDb2dVertex
 10
70.51827360443613
 20
-52.11215622309077
 30
0.0
  0
VERTEX
  5
8C
330
77
100
AcDbEntity
  8
Capa 1
370
     0
100
AcDbVertex
100
AcDb2dVertex
 10
72.64450358458693
 20
-53.33972155279046
 30
0.0
  0
VERTEX
  5
8D
330
77
100
AcDbEntity
  8
Capa 1
370
     0
100
AcDbVertex
100
AcDb2dVertex
 10
74.00760399277422
 20
-54.12668329963685
 30
0.0
  0
VERTEX
  5
8E
330
77
100
AcDbEntity
  8
Capa 1
370
     0
100
AcDbVertex
100
AcDb2dVertex
 10
75.37062107167931
 20
-54.91364504648517
 30
0.0
  0
VERTEX
  5
8F
330
77
100
AcDbEntity
  8
Capa 1
370
     0
100
AcDbVertex
100
AcDb2dVertex
 10
87.37824573052035
 20
-61.8462663944119
 30
0.0
  0
VERTEX
  5
90
330
77
100
AcDbEntity
  8
Capa 1
370
     0
100
AcDbVertex
100
AcDb2dVertex
 10
88.7414294679892
 20
-62.63326980590357
 30
0.0
  0
VERTEX
  5
91
330
77
100
AcDbEntity
  8
Capa 1
370
     0
100
AcDbVertex
100
AcDb2dVertex
 10
90.10427988832859
 20
-63.42010655882311
 30
0.0
  0
VERTEX
  5
92
330
77
100
AcDbEntity
  8
Capa 1
370
     0
100
AcDbVertex
100
AcDb2dVertex
 10
97.26068202523889
 20
-67.5518640529807
 30
0.0
  0
VERTEX
  5
93
330
77
100
AcDbEntity
  8
Capa 1
370
     0
100
AcDbVertex
100
AcDb2dVertex
 10
77.58305519489903
 20
-78.98697487427923
 30
0.0
  0
SEQEND
  5
94
330
77
100
AcDbEntity
  8
Capa 1
370
     0
  0
SPLINE
  5
95
330
1F
100
AcDbEntity
  8
Capa 1
370
     0
100
AcDbSpline
210
0.0
220
0.0
230
1.0
 70
    11
 71
     3
 72
    56
 73
    52
 74
     0
 42
0.0000000001
 43
0.0000000001
 12
1.0
 22
0.0
 32
0.0
 13
1.0
 23
0.0
 33
0.0
 40
0.0
 40
0.0
 40
0.0
 40
0.0
 40
1.0
 40
1.0
 40
1.0
 40
2.0
 40
2.0
 40
2.0
 40
3.0
 40
3.0
 40
3.0
 40
4.0
 40
4.0
 40
4.0
 40
5.0
 40
5.0
 40
5.0
 40
6.0
 40
6.0
 40
6.0
 40
7.0
 40
7.0
 40
7.0
 40
8.0
 40
8.0
 40
8.0
 40
9.0
 40
9.0
 40
9.0
 40
10.0
 40
10.0
 40
10.0
 40
11.0
 40
11.0
 40
11.0
 40
12.0
 40
12.0
 40
12.0
 40
13.0
 40
13.0
 40
13.0
 40
14.0
 40
14.0
 40
14.0
 40
15.0
 40
15.0
 40
15.0
 40
16.0
 40
16.0
 40
16.0
 40
17.0
 40
17.0
 40
17.0
 40
17.0
 10
98.6010752038599
 20
-26.43807087253925
 30
0.0
 10
98.6010752038599
 20
-26.43807087253925
 30
0.0
 10
73.36071877033037
 20
-41.10589955576756
 30
0.0
 10
73.36071877033037
 20
-41.10589955576756
 30
0.0
 10
73.36071877033037
 20
-41.10589955576756
 30
0.0
 10
73.36017712999084
 20
-41.10614954361709
 30
0.0
 10
73.36017712999084
 20
-41.10614954361709
 30
0.0
 10
73.36017712999084
 20
-41.10614954361709
 30
0.0
 10
73.35967715429564
 20
-41.10652452538865
 30
0.0
 10
73.35967715429564
 20
-41.10652452538865
 30
0.0
 10
73.35967715429564
 20
-41.10652452538865
 30
0.0
 10
73.35517737302408
 20
-41.10914939779727
 30
0.0
 10
73.35517737302408
 20
-41.10914939779727
 30
0.0
 10
73.31047121279546
 20
-41.13514813403502
 30
0.0
 10
73.27551457865698
 20
-41.17197967703613
 30
0.0
 10
73.2345582361565
 20
-41.2023948652597
 30
0.0
 10
73.17976923271213
 20
-41.24310121991257
 30
0.0
 10
73.12073043584188
 20
-41.27934945793402
 30
0.0
 10
73.0731910799959
 20
-41.32713880162504
 30
0.0
 10
73.0387344215571
 20
-41.3618037832745
 30
0.0
 10
73.01494391131533
 20
-41.40451004071364
 30
0.0
 10
72.98457038772997
 20
-41.44242486439057
 30
0.0
 10
72.94123916066782
 20
-41.49654723357467
 30
0.0
 10
72.89344981697842
 20
-41.5475030900119
 30
0.0
 10
72.85886816461341
 20
-41.60737517971135
 30
0.0
 10
72.83416103226055
 20
-41.65016476643333
 30
0.0
 10
72.82166163984138
 20
-41.69874573831179
 30
0.0
 10
72.8017042766077
 20
-41.74399353887638
 30
0.0
 10
72.7741222839954
 20
-41.80653216562588
 30
0.0
 10
72.74145720513445
 20
-41.86673757245546
 30
0.0
 10
72.72349974468862
 20
-41.93315101085384
 30
0.0
 10
72.70945876053729
 20
-41.98514848332451
 30
0.0
 10
72.70950042517903
 20
-42.04081244424269
 30
0.0
 10
72.70166747259296
 20
-42.09460149629409
 30
0.0
 10
72.69237625756047
 20
-42.15818173907766
 30
0.0
 10
72.67604371813096
 20
-42.22009539620383
 30
0.0
 10
72.67587705956525
 20
-42.28542555392639
 30
0.0
 10
72.67587705956525
 20
-42.28542555392639
 30
0.0
 10
72.65341981784786
 20
-50.19191623004279
 30
0.0
 10
72.65341981784786
 20
-50.19191623004279
 30
0.0
 10
72.65341981784786
 20
-50.19191623004279
 30
0.0
 10
70.5271898376948
 20
-48.96430923570264
 30
0.0
 10
70.5271898376948
 20
-48.96430923570264
 30
0.0
 10
70.5271898376948
 20
-48.96430923570264
 30
0.0
 10
70.55643841596323
 20
-38.67018461926364
 30
0.0
 10
70.55643841596323
 20
-38.67018461926364
 30
0.0
 10
70.55643841596323
 20
-38.67018461926364
 30
0.0
 10
98.61261630953236
 20
-22.36606047415682
 30
0.0
 10
98.61261630953236
 20
-22.36606047415682
 30
0.0
 10
98.61261630953236
 20
-22.36606047415682
 30
0.0
 10
98.6010752038599
 20
-26.43807087253925
 30
0.0
 10
98.6010752038599
 20
-26.43807087253925
 30
0.0
  0
SPLINE
  5
96
330
1F
100
AcDbEntity
  8
Capa 1
370
     0
100
AcDbSpline
210
0.0
220
0.0
230
1.0
 70
    11
 71
     3
 72
    50
 73
    46
 74
     0
 42
0.0000000001
 43
0.0000000001
 12
1.0
 22
0.0
 32
0.0
 13
1.0
 23
0.0
 33
0.0
 40
0.0
 40
0.0
 40
0.0
 40
0.0
 40
1.0
 40
1.0
 40
1.0
 40
2.0
 40
2.0
 40
2.0
 40
3.0
 40
3.0
 40
3.0
 40
4.0
 40
4.0
 40
4.0
 40
5.0
 40
5.0
 40
5.0
 40
6.0
 40
6.0
 40
6.0
 40
7.0
 40
7.0
 40
7.0
 40
8.0
 40
8.0
 40
8.0
 40
9.0
 40
9.0
 40
9.0
 40
10.0
 40
10.0
 40
10.0
 40
11.0
 40
11.0
 40
11.0
 40
12.0
 40
12.0
 40
12.0
 40
13.0
 40
13.0
 40
13.0
 40
14.0
 40
14.0
 40
14.0
 40
15.0
 40
15.0
 40
15.0
 40
15.0
 10
39.55948680278141
 20
-22.35072788611995
 30
0.0
 10
39.55948680278141
 20
-22.35072788611995
 30
0.0
 10
67.82577948295209
 20
-38.67026794854649
 30
0.0
 10
67.82577948295209
 20
-38.67026794854649
 30
0.0
 10
67.82577948295209
 20
-38.67026794854649
 30
0.0
 10
67.79711420966845
 20
-48.76990201891049
 30
0.0
 10
67.79711420966845
 20
-48.76990201891049
 30
0.0
 10
67.79711420966845
 20
-48.76990201891049
 30
0.0
 10
65.49343452177642
 20
-50.10867027651712
 30
0.0
 10
65.49343452177642
 20
-50.10867027651712
 30
0.0
 10
65.49343452177642
 20
-50.10867027651712
 30
0.0
 10
65.51555844635983
 20
-42.29075862802779
 30
0.0
 10
65.51555844635983
 20
-42.29075862802779
 30
0.0
 10
65.51555844635983
 20
-42.28971701199275
 30
0.0
 10
65.51518346458826
 20
-42.28880038988232
 30
0.0
 10
65.51518346458826
 20
-42.28775877384792
 30
0.0
 10
65.51518346458826
 20
-42.28775877384792
 30
0.0
 10
65.51555844635983
 20
-42.28475891966484
 30
0.0
 10
65.51555844635983
 20
-42.28475891966484
 30
0.0
 10
65.51547511707794
 20
-42.21472065746422
 30
0.0
 10
65.49868426659305
 20
-42.1482238897833
 30
0.0
 10
65.48814311231773
 20
-42.08022719501165
 30
0.0
 10
65.48047681829962
 20
-42.03077126566323
 30
0.0
 10
65.48114345256214
 20
-41.97927376888808
 30
0.0
 10
65.46818574908406
 20
-41.93131776663073
 30
0.0
 10
65.45043661184505
 20
-41.86548763321136
 30
0.0
 10
65.41785486226695
 20
-41.80590719600255
 30
0.0
 10
65.39068951607182
 20
-41.74386854495306
 30
0.0
 10
65.37044050035038
 20
-41.69766245763692
 30
0.0
 10
65.35777444936197
 20
-41.6480398697244
 30
0.0
 10
65.33260900595342
 20
-41.60441699017129
 30
0.0
 10
65.29981893316882
 20
-41.54754475465461
 30
0.0
 10
65.25386283370156
 20
-41.49967208168107
 30
0.0
 10
65.21311481440694
 20
-41.44800792633893
 30
0.0
 10
65.1806580587528
 20
-41.40684326063292
 30
0.0
 10
65.15490931036265
 20
-41.3608454965236
 30
0.0
 10
65.11770278558966
 20
-41.32347231318137
 30
0.0
 10
65.03391519172577
 20
-41.23935140218734
 30
0.0
 10
64.93854482755152
 20
-41.16539666369319
 30
0.0
 10
64.83292496159356
 20
-41.10448295795968
 30
0.0
 10
64.83292496159356
 20
-41.10448295795968
 30
0.0
 10
39.54773737390536
 20
-26.50610923195169
 30
0.0
 10
39.54773737390536
 20
-26.50610923195169
 30
0.0
 10
39.54773737390536
 20
-26.50610923195169
 30
0.0
 10
39.55948680278141
 20
-22.35072788611995
 30
0.0
 10
39.55948680278141
 20
-22.35072788611995
 30
0.0
  0
POLYLINE
  5
97
330
1F
100
AcDbEntity
  8
Capa 1
370
     0
100
AcDb2dPolyline
 66
     1
 10
0.0
 20
0.0
 30
0.0
  0
VERTEX
  5
98
330
97
100
AcDbEntity
  8
Capa 1
370
     0
100
AcDbVertex
100
AcDb2dVertex
 10
3.721228852330771
 20
-44.65031060004451
 30
0.0
  0
VERTEX
  5
99
330
97
100
AcDbEntity
  8
Capa 1
370
     0
100
AcDbVertex
100
AcDb2dVertex
 10
31.98752153250273
 20
-60.97018397960374
 30
0.0
  0
VERTEX
  5
9A
330
97
100
AcDbEntity
  8
Capa 1
370
     0
100
AcDbVertex
100
AcDb2dVertex
 10
31.89385941862379
 20
-93.99191217111343
 30
0.0
  0
VERTEX
  5
9B
330
97
100
AcDbEntity
  8
Capa 1
370
     0
100
AcDbVertex
100
AcDb2dVertex
 10
3.627566738452797
 20
-77.67237210868785
 30
0.0
  0
VERTEX
  5
9C
330
97
100
AcDbEntity
  8
Capa 1
370
     0
100
AcDbVertex
100
AcDb2dVertex
 10
3.721228852330771
 20
-44.65031060004451
 30
0.0
  0
SEQEND
  5
9D
330
97
100
AcDbEntity
  8
Capa 1
370
     0
  0
SPLINE
  5
9E
330
1F
100
AcDbEntity
  8
Capa 1
370
     0
100
AcDbSpline
210
0.0
220
0.0
230
1.0
 70
    11
 71
     3
 72
    74
 73
    70
 74
     0
 42
0.0000000001
 43
0.0000000001
 12
1.0
 22
0.0
 32
0.0
 13
1.0
 23
0.0
 33
0.0
 40
0.0
 40
0.0
 40
0.0
 40
0.0
 40
1.0
 40
1.0
 40
1.0
 40
2.0
 40
2.0
 40
2.0
 40
3.0
 40
3.0
 40
3.0
 40
4.0
 40
4.0
 40
4.0
 40
5.0
 40
5.0
 40
5.0
 40
6.0
 40
6.0
 40
6.0
 40
7.0
 40
7.0
 40
7.0
 40
8.0
 40
8.0
 40
8.0
 40
9.0
 40
9.0
 40
9.0
 40
10.0
 40
10.0
 40
10.0
 40
11.0
 40
11.0
 40
11.0
 40
12.0
 40
12.0
 40
12.0
 40
13.0
 40
13.0
 40
13.0
 40
14.0
 40
14.0
 40
14.0
 40
15.0
 40
15.0
 40
15.0
 40
16.0
 40
16.0
 40
16.0
 40
17.0
 40
17.0
 40
17.0
 40
18.0
 40
18.0
 40
18.0
 40
19.0
 40
19.0
 40
19.0
 40
20.0
 40
20.0
 40
20.0
 40
21.0
 40
21.0
 40
21.0
 40
22.0
 40
22.0
 40
22.0
 40
23.0
 40
23.0
 40
23.0
 40
23.0
 10
34.71818046550874
 20
-60.970100650318
 30
0.0
 10
34.71818046550874
 20
-60.970100650318
 30
0.0
 10
39.19467120264345
 20
-58.36864377030778
 30
0.0
 10
39.19467120264345
 20
-58.36864377030778
 30
0.0
 10
39.19467120264345
 20
-58.36864377030778
 30
0.0
 10
40.55531339699007
 20
-57.57793220573455
 30
0.0
 10
40.55531339699007
 20
-57.57793220573455
 30
0.0
 10
40.55531339699007
 20
-57.57793220573455
 30
0.0
 10
41.91624724382443
 20
-56.78705398259464
 30
0.0
 10
41.91624724382443
 20
-56.78705398259464
 30
0.0
 10
41.91624724382443
 20
-56.78705398259464
 30
0.0
 10
62.77835816465488
 20
-44.66330996816273
 30
0.0
 10
62.77835816465488
 20
-44.66330996816273
 30
0.0
 10
62.77835816465488
 20
-44.66330996816273
 30
0.0
 10
62.75848413070405
 20
-51.69805135217234
 30
0.0
 10
62.75848413070405
 20
-51.69805135217234
 30
0.0
 10
62.75848413070405
 20
-51.69805135217234
 30
0.0
 10
47.97853589745578
 20
-60.28713384841743
 30
0.0
 10
47.97853589745578
 20
-60.28713384841743
 30
0.0
 10
47.97853589745578
 20
-60.28713384841743
 30
0.0
 10
46.61764371526124
 20
-61.07801207155509
 30
0.0
 10
46.61764371526124
 20
-61.07801207155509
 30
0.0
 10
46.61764371526124
 20
-61.07801207155509
 30
0.0
 10
45.25695985627544
 20
-61.86876530077104
 30
0.0
 10
45.25695985627544
 20
-61.86876530077104
 30
0.0
 10
45.25695985627544
 20
-61.86876530077104
 30
0.0
 10
37.52046091708993
 20
-66.3646717608044
 30
0.0
 10
37.52046091708993
 20
-66.3646717608044
 30
0.0
 10
37.52046091708993
 20
-66.3646717608044
 30
0.0
 10
37.51991927675041
 20
-66.36492174864975
 30
0.0
 10
37.51991927675041
 20
-66.36492174864975
 30
0.0
 10
37.51991927675041
 20
-66.36492174864975
 30
0.0
 10
37.5194193010549
 20
-66.36529673042357
 30
0.0
 10
37.5194193010549
 20
-66.36529673042357
 30
0.0
 10
37.5194193010549
 20
-66.36529673042357
 30
0.0
 10
37.51491951978557
 20
-66.36792160283187
 30
0.0
 10
37.51491951978557
 20
-66.36792160283187
 30
0.0
 10
37.47112998166804
 20
-66.39337869872881
 30
0.0
 10
37.43700664035553
 20
-66.4295436074703
 30
0.0
 10
37.39684192604216
 20
-66.45925049678928
 30
0.0
 10
37.34105297120291
 20
-66.50054015642021
 30
0.0
 10
37.28118088150346
 20
-66.53737169942293
 30
0.0
 10
37.23284989747582
 20
-66.58599433594249
 30
0.0
 10
37.20097644680006
 20
-66.6180761098241
 30
0.0
 10
37.179269168629
 20
-66.65782417772255
 30
0.0
 10
37.15085388319201
 20
-66.69269748257948
 30
0.0
 10
37.10477278979759
 20
-66.74936139488999
 30
0.0
 10
37.0548585493954
 20
-66.80335877015013
 30
0.0
 10
37.01848531744902
 20
-66.866439037234
 30
0.0
 10
36.99577808788435
 20
-66.90581212336313
 30
0.0
 10
36.98461196398635
 20
-66.95068494215553
 30
0.0
 10
36.9659045399987
 20
-66.9921829249936
 30
0.0
 10
36.93623931531985
 20
-67.05801305841264
 30
0.0
 10
36.90224096793002
 20
-67.12196828297003
 30
0.0
 10
36.88324189144916
 20
-67.19213153909268
 30
0.0
 10
36.86940923050431
 20
-67.24333738338072
 30
0.0
 10
36.86957588907034
 20
-67.29816805146908
 30
0.0
 10
36.8617429364862
 20
-67.35116547533528
 30
0.0
 10
36.85224339824593
 20
-67.4154540170212
 30
0.0
 10
36.83578586489149
 20
-67.47811763769467
 30
0.0
 10
36.83561920632354
 20
-67.54419775896355
 30
0.0
 10
36.83561920632354
 20
-67.54419775896355
 30
0.0
 10
36.76437266952409
 20
-92.73264004930496
 30
0.0
 10
36.76437266952409
 20
-92.73264004930496
 30
0.0
 10
36.76437266952409
 20
-92.73264004930496
 30
0.0
 10
34.6244766869919
 20
-93.9762046013034
 30
0.0
 10
34.6244766869919
 20
-93.9762046013034
 30
0.0
 10
34.6244766869919
 20
-93.9762046013034
 30
0.0
 10
34.71818046550874
 20
-60.970100650318
 30
0.0
 10
34.71818046550874
 20
-60.970100650318
 30
0.0
  0
POLYLINE
  5
9F
330
1F
100
AcDbEntity
  8
Capa 1
370
     0
100
AcDb2dPolyline
 66
     1
 10
0.0
 20
0.0
 30
0.0
  0
VERTEX
  5
A0
330
9F
100
AcDbEntity
  8
Capa 1
370
     0
100
AcDbVertex
100
AcDb2dVertex
 10
39.49053182125726
 20
-94.30652187835729
 30
0.0
  0
VERTEX
  5
A1
330
9F
100
AcDbEntity
  8
Capa 1
370
     0
100
AcDbVertex
100
AcDb2dVertex
 10
39.49498993788772
 20
-92.7250570845697
 30
0.0
  0
VERTEX
  5
A2
330
9F
100
AcDbEntity
  8
Capa 1
370
     0
100
AcDbVertex
100
AcDb2dVertex
 10
39.49948971916025
 20
-91.14317564436753
 30
0.0
  0
VERTEX
  5
A3
330
9F
100
AcDbEntity
  8
Capa 1
370
     0
100
AcDbVertex
100
AcDb2dVertex
 10
39.55948680278141
 20
-69.90908280507846
 30
0.0
  0
VERTEX
  5
A4
330
9F
100
AcDbEntity
  8
Capa 1
370
     0
100
AcDbVertex
100
AcDb2dVertex
 10
57.85868063689839
 20
-80.47411091992632
 30
0.0
  0
VERTEX
  5
A5
330
9F
100
AcDbEntity
  8
Capa 1
370
     0
100
AcDbVertex
100
AcDb2dVertex
 10
59.22178104508793
 20
-81.26111433141831
 30
0.0
  0
VERTEX
  5
A6
330
9F
100
AcDbEntity
  8
Capa 1
370
     0
100
AcDbVertex
100
AcDb2dVertex
 10
60.58463146542602
 20
-82.04795108434107
 30
0.0
  0
VERTEX
  5
A7
330
9F
100
AcDbEntity
  8
Capa 1
370
     0
100
AcDbVertex
100
AcDb2dVertex
 10
67.82577948295209
 20
-86.228622867505
 30
0.0
  0
VERTEX
  5
A8
330
9F
100
AcDbEntity
  8
Capa 1
370
     0
100
AcDbVertex
100
AcDb2dVertex
 10
67.73211736907828
 20
-119.2503510590137
 30
0.0
  0
VERTEX
  5
A9
330
9F
100
AcDbEntity
  8
Capa 1
370
     0
100
AcDbVertex
100
AcDb2dVertex
 10
39.46615800603614
 20
-102.9308109965891
 30
0.0
  0
VERTEX
  5
AA
330
9F
100
AcDbEntity
  8
Capa 1
370
     0
100
AcDbVertex
100
AcDb2dVertex
 10
39.49053182125726
 20
-94.30652187835729
 30
0.0
  0
SEQEND
  5
AB
330
9F
100
AcDbEntity
  8
Capa 1
370
     0
  0
SPLINE
  5
AC
330
1F
100
AcDbEntity
  8
Capa 1
370
     0
100
AcDbSpline
210
0.0
220
0.0
230
1.0
 70
    11
 71
     3
 72
    68
 73
    64
 74
     0
 42
0.0000000001
 43
0.0000000001
 12
1.0
 22
0.0
 32
0.0
 13
1.0
 23
0.0
 33
0.0
 40
0.0
 40
0.0
 40
0.0
 40
0.0
 40
1.0
 40
1.0
 40
1.0
 40
2.0
 40
2.0
 40
2.0
 40
3.0
 40
3.0
 40
3.0
 40
4.0
 40
4.0
 40
4.0
 40
5.0
 40
5.0
 40
5.0
 40
6.0
 40
6.0
 40
6.0
 40
7.0
 40
7.0
 40
7.0
 40
8.0
 40
8.0
 40
8.0
 40
9.0
 40
9.0
 40
9.0
 40
10.0
 40
10.0
 40
10.0
 40
11.0
 40
11.0
 40
11.0
 40
12.0
 40
12.0
 40
12.0
 40
13.0
 40
13.0
 40
13.0
 40
14.0
 40
14.0
 40
14.0
 40
15.0
 40
15.0
 40
15.0
 40
16.0
 40
16.0
 40
16.0
 40
17.0
 40
17.0
 40
17.0
 40
18.0
 40
18.0
 40
18.0
 40
19.0
 40
19.0
 40
19.0
 40
20.0
 40
20.0
 40
20.0
 40
21.0
 40
21.0
 40
21.0
 40
21.0
 10
101.3494416094693
 20
-67.54886419879891
 30
0.0
 10
101.3494416094693
 20
-67.54886419879891
 30
0.0
 10
101.3498165912386
 20
-67.54690596065375
 30
0.0
 10
101.3498165912386
 20
-67.54586434461679
 30
0.0
 10
101.3497332619545
 20
-67.470951319374
 30
0.0
 10
101.3325674296938
 20
-67.39953812400435
 30
0.0
 10
101.3205263483336
 20
-67.32699998332099
 30
0.0
 10
101.3131517068029
 20
-67.28250214630111
 30
0.0
 10
101.3141933228398
 20
-67.23596274185132
 30
0.0
 10
101.3025688878887
 20
-67.19275650871505
 30
0.0
 10
101.280361634017
 20
-67.11038551265872
 30
0.0
 10
101.2424468103426
 20
-67.03447253601847
 30
0.0
 10
101.2056152673389
 20
-66.95822624225
 30
0.0
 10
101.1911576367685
 20
-66.92826936507925
 30
0.0
 10
101.1838246598818
 20
-66.8949793165972
 30
0.0
 10
101.1672421326047
 20
-66.86618904938737
 30
0.0
 10
101.1138280623229
 20
-66.77352688690429
 30
0.0
 10
101.0465396664594
 20
-66.68936431126657
 30
0.0
 10
100.9725015986805
 20
-66.61120144399408
 30
0.0
 10
100.964960298587
 20
-66.60324349748404
 30
0.0
 10
100.9603355233918
 20
-66.59299399569969
 30
0.0
 10
100.9525859000853
 20
-66.58520270775632
 30
0.0
 10
100.8686733122988
 20
-66.50079014427006
 30
0.0
 10
100.7730529602779
 20
-66.42671041185325
 30
0.0
 10
100.6671831064672
 20
-66.36558838291548
 30
0.0
 10
100.6671831064672
 20
-66.36558838291548
 30
0.0
 10
92.82593925879178
 20
-61.83847510647175
 30
0.0
 10
92.82593925879178
 20
-61.83847510647175
 30
0.0
 10
92.82593925879178
 20
-61.83847510647175
 30
0.0
 10
91.4630888384524
 20
-61.05163835354707
 30
0.0
 10
91.4630888384524
 20
-61.05163835354707
 30
0.0
 10
91.4630888384524
 20
-61.05163835354707
 30
0.0
 10
90.09994676562305
 20
-60.26459327741782
 30
0.0
 10
90.09994676562305
 20
-60.26459327741782
 30
0.0
 10
90.09994676562305
 20
-60.26459327741782
 30
0.0
 10
75.3795789695823
 20
-51.7658397237375
 30
0.0
 10
75.3795789695823
 20
-51.7658397237375
 30
0.0
 10
75.3795789695823
 20
-51.7658397237375
 30
0.0
 10
75.39974465602184
 20
-44.65031060004451
 30
0.0
 10
75.39974465602184
 20
-44.65031060004451
 30
0.0
 10
75.39974465602184
 20
-44.65031060004451
 30
0.0
 10
96.25189772755536
 20
-56.68955872170793
 30
0.0
 10
96.25189772755536
 20
-56.68955872170793
 30
0.0
 10
96.25189772755536
 20
-56.68955872170793
 30
0.0
 10
97.61499813574008
 20
-57.47656213319735
 30
0.0
 10
97.61499813574008
 20
-57.47656213319735
 30
0.0
 10
97.61499813574008
 20
-57.47656213319735
 30
0.0
 10
98.97780689144605
 20
-58.26339888612043
 30
0.0
 10
98.97780689144605
 20
-58.26339888612043
 30
0.0
 10
98.97780689144605
 20
-58.26339888612043
 30
0.0
 10
103.6660373361948
 20
-60.97018397960374
 30
0.0
 10
103.6660373361948
 20
-60.97018397960374
 30
0.0
 10
103.6660373361948
 20
-60.97018397960374
 30
0.0
 10
103.572375222319
 20
-93.99191217111343
 30
0.0
 10
103.572375222319
 20
-93.99191217111343
 30
0.0
 10
103.572375222319
 20
-93.99191217111343
 30
0.0
 10
101.2785283897958
 20
-92.66755987943193
 30
0.0
 10
101.2785283897958
 20
-92.66755987943193
 30
0.0
 10
101.2785283897958
 20
-92.66755987943193
 30
0.0
 10
101.3498165912386
 20
-67.5518640529807
 30
0.0
 10
101.3498165912386
 20
-67.5518640529807
 30
0.0
 10
101.3498165912386
 20
-67.5508224369447
 30
0.0
 10
101.3494416094693
 20
-67.54990581483587
 30
0.0
 10
101.3494416094693
 20
-67.54886419879891
 30
0.0
  0
ENDSEC
  0
SECTION
  2
OBJECTS
  0
DICTIONARY
  5
C
330
0
100
AcDbDictionary
281
     1
  3
ACAD_GROUP
350
D
  3
ACAD_LAYOUT
350
1A
  3
ACAD_MATERIAL
350
3B
  3
ACAD_MLEADERSTYLE
350
AE
  3
ACAD_MLINESTYLE
350
17
  3
ACAD_PLOTSETTINGS
350
19
  3
ACAD_PLOTSTYLENAME
350
E
  3
ACAD_TABLESTYLE
350
AD
  3
ACAD_VISUALSTYLE
350
2A
  0
SUN
  5
3F
330
29
100
AcDbSun
 90
        1
290
     0
 63
     7
421
 16777215
 40
1.0
291
     1
 91
  2455826
 92
 54000000
292
     0
 70
     2
 71
   256
280
     1
  0
DICTIONARY
  5
D
102
{ACAD_REACTORS
330
C
102
}
330
C
100
AcDbDictionary
281
     1
  0
DICTIONARY
  5
1A
102
{ACAD_REACTORS
330
C
102
}
330
C
100
AcDbDictionary
281
     1
  3
Layout1
350
1E
  3
Layout2
350
26
  3
Model
350
22
  0
DICTIONARY
  5
3B
102
{ACAD_REACTORS
330
C
102
}
330
C
100
AcDbDictionary
281
     1
  3
ByBlock
350
3D
  3
ByLayer
350
3C
  3
Global
350
3E
  0
DICTIONARY
  5
AE
102
{ACAD_REACTORS
330
C
102
}
330
C
100
AcDbDictionary
281
     1
  0
DICTIONARY
  5
17
102
{ACAD_REACTORS
330
C
102
}
330
C
100
AcDbDictionary
281
     1
  3
Standard
350
18
  0
DICTIONARY
  5
19
102
{ACAD_REACTORS
330
C
102
}
330
C
100
AcDbDictionary
281
     1
  0
ACDBDICTIONARYWDFLT
  5
E
102
{ACAD_REACTORS
330
C
102
}
330
C
100
AcDbDictionary
281
     1
  3
Normal
350
F
100
AcDbDictionaryWithDefault
340
F
  0
DICTIONARY
  5
AD
102
{ACAD_REACTORS
330
C
102
}
330
C
100
AcDbDictionary
281
     1
  0
DICTIONARY
  5
2A
102
{ACAD_REACTORS
330
C
102
}
330
C
100
AcDbDictionary
281
     1
  3
2dWireframe
350
2F
  3
3D Hidden
350
31
  3
3dWireframe
350
30
  3
Basic
350
32
  3
Brighten
350
36
  3
ColorChange
350
3A
  3
Conceptual
350
34
  3
Dim
350
35
  3
Facepattern
350
39
  3
Flat
350
2B
  3
FlatWithEdges
350
2C
  3
Gouraud
350
2D
  3
GouraudWithEdges
350
2E
  3
Linepattern
350
38
  3
Realistic
350
33
  3
Thicken
350
37
  0
LAYOUT
  5
1E
102
{ACAD_REACTORS
330
1A
102
}
330
1A
100
AcDbPlotSettings
  1

  2
none_device
  4

  6

 40
0.0
 41
0.0
 42
0.0
 43
0.0
 44
0.0
 45
0.0
 46
0.0
 47
0.0
 48
0.0
 49
0.0
140
0.0
141
0.0
142
1.0
143
1.0
 70
   688
 72
     0
 73
     0
 74
     5
  7

 75
    16
 76
     0
 77
     2
 78
   300
147
1.0
148
0.0
149
0.0
100
AcDbLayout
  1
Layout1
 70
     1
 71
     1
 10
0.0
 20
0.0
 11
12.0
 21
9.0
 12
0.0
 22
0.0
 32
0.0
 14
1.000000000000000E+20
 24
1.000000000000000E+20
 34
1.000000000000000E+20
 15
-1.000000000000000E+20
 25
-1.000000000000000E+20
 35
-1.000000000000000E+20
146
0.0
 13
0.0
 23
0.0
 33
0.0
 16
1.0
 26
0.0
 36
0.0
 17
0.0
 27
1.0
 37
0.0
 76
     0
330
1B
  0
LAYOUT
  5
26
102
{ACAD_REACTORS
330
1A
102
}
330
1A
100
AcDbPlotSettings
  1

  2
none_device
  4

  6

 40
0.0
 41
0.0
 42
0.0
 43
0.0
 44
0.0
 45
0.0
 46
0.0
 47
0.0
 48
0.0
 49
0.0
140
0.0
141
0.0
142
1.0
143
1.0
 70
   688
 72
     0
 73
     0
 74
     5
  7

 75
    16
 76
     0
 77
     2
 78
   300
147
1.0
148
0.0
149
0.0
100
AcDbLayout
  1
Layout2
 70
     1
 71
     2
 10
0.0
 20
0.0
 11
0.0
 21
0.0
 12
0.0
 22
0.0
 32
0.0
 14
0.0
 24
0.0
 34
0.0
 15
0.0
 25
0.0
 35
0.0
146
0.0
 13
0.0
 23
0.0
 33
0.0
 16
1.0
 26
0.0
 36
0.0
 17
0.0
 27
1.0
 37
0.0
 76
     0
330
23
  0
LAYOUT
  5
22
102
{ACAD_REACTORS
330
1A
102
}
330
1A
100
AcDbPlotSettings
  1

  2
none_device
  4

  6

 40
0.0
 41
0.0
 42
0.0
 43
0.0
 44
0.0
 45
0.0
 46
0.0
 47
0.0
 48
0.0
 49
0.0
140
0.0
141
0.0
142
1.0
143
1.0
 70
  1712
 72
     0
 73
     0
 74
     0
  7

 75
     0
 76
     0
 77
     2
 78
   300
147
1.0
148
0.0
149
0.0
100
AcDbLayout
  1
Model
 70
     1
 71
     0
 10
0.0
 20
0.0
 11
12.0
 21
9.0
 12
0.0
 22
0.0
 32
0.0
 14
1.000000000000000E+20
 24
1.000000000000000E+20
 34
1.000000000000000E+20
 15
-1.000000000000000E+20
 25
-1.000000000000000E+20
 35
-1.000000000000000E+20
146
0.0
 13
0.0
 23
0.0
 33
0.0
 16
1.0
 26
0.0
 36
0.0
 17
0.0
 27
1.0
 37
0.0
 76
     0
330
1F
331
29
  0
MATERIAL
  5
3D
102
{ACAD_REACTORS
330
3B
102
}
330
3B
100
AcDbMaterial
  1
ByBlock
 72
     1
 94
      127
  0
MATERIAL
  5
3C
102
{ACAD_REACTORS
330
3B
102
}
330
3B
100
AcDbMaterial
  1
ByLayer
 72
     1
 94
      127
  0
MATERIAL
  5
3E
102
{ACAD_REACTORS
330
3B
102
}
330
3B
100
AcDbMaterial
  1
Global
 72
     1
 94
      127
  0
MLINESTYLE
  5
18
102
{ACAD_REACTORS
330
17
102
}
330
17
100
AcDbMlineStyle
  2
Standard
 70
     0
  3

 62
   256
 51
90.0
 52
90.0
 71
     2
 49
0.5
 62
   256
  6
BYLAYER
 49
-0.5
 62
   256
  6
BYLAYER
  0
ACDBPLACEHOLDER
  5
F
102
{ACAD_REACTORS
330
E
102
}
330
E
  0
VISUALSTYLE
  5
2F
102
{ACAD_REACTORS
330
2A
102
}
330
2A
100
AcDbVisualStyle
  2
2dWireframe
 70
     4
177
     2
291
     0
 71
     0
176
     1
 72
     2
176
     1
 73
     0
176
     1
 90
        0
176
     1
 40
-0.6
176
     1
 41
-30.0
176
     1
 62
     5
 63
     7
421
 16777215
176
     1
 74
     1
176
     1
 91
        4
176
     1
 64
     7
176
     1
 65
   257
176
     1
 75
     1
176
     1
175
     1
176
     1
 42
1.0
176
     1
 92
        0
176
     1
 66
   257
176
     1
 43
1.0
176
     1
 76
     1
176
     1
 77
     6
176
     1
 78
     2
176
     1
 67
     7
176
     1
 79
     5
176
     1
170
     0
176
     1
171
     0
176
     1
290
     0
176
     1
 93
        1
176
     1
 44
0.0
176
     1
173
     0
176
     1
  0
VISUALSTYLE
  5
31
102
{ACAD_REACTORS
330
2A
102
}
330
2A
100
AcDbVisualStyle
  2
3D Hidden
 70
     6
177
     2
291
     0
 71
     1
176
     1
 72
     2
176
     1
 73
     2
176
     1
 90
        0
176
     1
 40
-0.6
176
     1
 41
-30.0
176
     1
 62
     5
 63
     7
421
 16777215
176
     1
 74
     2
176
     1
 91
        2
176
     1
 64
     7
176
     1
 65
   257
176
     1
 75
     2
176
     1
175
     1
176
     1
 42
40.0
176
     1
 92
        0
176
     1
 66
   257
176
     1
 43
1.0
176
     1
 76
     1
176
     1
 77
     6
176
     1
 78
     2
176
     1
 67
     7
176
     1
 79
     3
176
     1
170
     0
176
     1
171
     0
176
     1
290
     0
176
     1
 93
        1
176
     1
 44
0.0
176
     1
173
     0
176
     1
  0
VISUALSTYLE
  5
30
102
{ACAD_REACTORS
330
2A
102
}
330
2A
100
AcDbVisualStyle
  2
3dWireframe
 70
     5
177
     2
291
     0
 71
     0
176
     1
 72
     2
176
     1
 73
     0
176
     1
 90
        0
176
     1
 40
-0.6
176
     1
 41
-30.0
176
     1
 62
     5
 63
     7
421
 16777215
176
     1
 74
     1
176
     1
 91
        4
176
     1
 64
     7
176
     1
 65
   257
176
     1
 75
     1
176
     1
175
     1
176
     1
 42
1.0
176
     1
 92
        0
176
     1
 66
   257
176
     1
 43
1.0
176
     1
 76
     1
176
     1
 77
     6
176
     1
 78
     2
176
     1
 67
     7
176
     1
 79
     5
176
     1
170
     0
176
     1
171
     0
176
     1
290
     0
176
     1
 93
        1
176
     1
 44
0.0
176
     1
173
     0
176
     1
  0
VISUALSTYLE
  5
32
102
{ACAD_REACTORS
330
2A
102
}
330
2A
100
AcDbVisualStyle
  2
Basic
 70
     7
177
     2
291
     1
 71
     1
176
     1
 72
     0
176
     1
 73
     1
176
     1
 90
        0
176
     1
 40
-0.6
176
     1
 41
-30.0
176
     1
 62
     5
 63
     7
421
 16777215
176
     1
 74
     0
176
     1
 91
        4
176
     1
 64
     7
176
     1
 65
   257
176
     1
 75
     1
176
     1
175
     1
176
     1
 42
1.0
176
     1
 92
        8
176
     1
 66
     7
176
     1
 43
1.0
176
     1
 76
     1
176
     1
 77
     6
176
     1
 78
     2
176
     1
 67
     7
176
     1
 79
     5
176
     1
170
     0
176
     1
171
     0
176
     1
290
     0
176
     1
 93
        1
176
     1
 44
0.0
176
     1
173
     0
176
     1
  0
VISUALSTYLE
  5
36
102
{ACAD_REACTORS
330
2A
102
}
330
2A
100
AcDbVisualStyle
  2
Brighten
 70
    12
177
     2
291
     1
 71
     2
176
     1
 72
     2
176
     1
 73
     0
176
     1
 90
        0
176
     1
 40
-0.6
176
     1
 41
-30.0
176
     1
 62
     5
 63
     7
421
 16777215
176
     1
 74
     1
176
     1
 91
        4
176
     1
 64
     7
176
     1
 65
   257
176
     1
 75
     1
176
     1
175
     1
176
     1
 42
1.0
176
     1
 92
        8
176
     1
 66
     7
176
     1
 43
1.0
176
     1
 76
     1
176
     1
 77
     6
176
     1
 78
     2
176
     1
 67
     7
176
     1
 79
     5
176
     1
170
     0
176
     1
171
     0
176
     1
290
     0
176
     1
 93
        1
176
     1
 44
50.0
176
     1
173
     0
176
     1
  0
VISUALSTYLE
  5
3A
102
{ACAD_REACTORS
330
2A
102
}
330
2A
100
AcDbVisualStyle
  2
ColorChange
 70
    16
177
     2
291
     1
 71
     2
176
     1
 72
     2
176
     1
 73
     3
176
     1
 90
        0
176
     1
 40
-0.6
176
     1
 41
-30.0
176
     1
 62
     5
 63
     8
421
  8421504
176
     1
 74
     1
176
     1
 91
        4
176
     1
 64
     7
176
     1
 65
   257
176
     1
 75
     1
176
     1
175
     1
176
     1
 42
1.0
176
     1
 92
        8
176
     1
 66
     8
424
  8421504
176
     1
 43
1.0
176
     1
 76
     1
176
     1
 77
     6
176
     1
 78
     2
176
     1
 67
     7
176
     1
 79
     5
176
     1
170
     0
176
     1
171
     0
176
     1
290
     0
176
     1
 93
        1
176
     1
 44
0.0
176
     1
173
     0
176
     1
  0
VISUALSTYLE
  5
34
102
{ACAD_REACTORS
330
2A
102
}
330
2A
100
AcDbVisualStyle
  2
Conceptual
 70
     9
177
     2
291
     0
 71
     3
176
     1
 72
     2
176
     1
 73
     0
176
     1
 90
        0
176
     1
 40
-0.6
176
     1
 41
-30.0
176
     1
 62
     5
 63
     7
421
 16777215
176
     1
 74
     2
176
     1
 91
        2
176
     1
 64
     7
176
     1
 65
   257
176
     1
 75
     1
176
     1
175
     1
176
     1
 42
40.0
176
     1
 92
        8
176
     1
 66
     7
176
     1
 43
1.0
176
     1
 76
     1
176
     1
 77
     6
176
     1
 78
     2
176
     1
 67
     7
176
     1
 79
     3
176
     1
170
     0
176
     1
171
     0
176
     1
290
     0
176
     1
 93
        1
176
     1
 44
0.0
176
     1
173
     0
176
     1
  0
VISUALSTYLE
  5
35
102
{ACAD_REACTORS
330
2A
102
}
330
2A
100
AcDbVisualStyle
  2
Dim
 70
    11
177
     2
291
     1
 71
     2
176
     1
 72
     2
176
     1
 73
     0
176
     1
 90
        0
176
     1
 40
-0.6
176
     1
 41
-30.0
176
     1
 62
     5
 63
     7
421
 16777215
176
     1
 74
     1
176
     1
 91
        4
176
     1
 64
     7
176
     1
 65
   257
176
     1
 75
     1
176
     1
175
     1
176
     1
 42
1.0
176
     1
 92
        8
176
     1
 66
     7
176
     1
 43
1.0
176
     1
 76
     1
176
     1
 77
     6
176
     1
 78
     2
176
     1
 67
     7
176
     1
 79
     5
176
     1
170
     0
176
     1
171
     0
176
     1
290
     0
176
     1
 93
        1
176
     1
 44
-50.0
176
     1
173
     0
176
     1
  0
VISUALSTYLE
  5
39
102
{ACAD_REACTORS
330
2A
102
}
330
2A
100
AcDbVisualStyle
  2
Facepattern
 70
    15
177
     2
291
     1
 71
     2
176
     1
 72
     2
176
     1
 73
     0
176
     1
 90
        0
176
     1
 40
-0.6
176
     1
 41
-30.0
176
     1
 62
     5
 63
     7
421
 16777215
176
     1
 74
     1
176
     1
 91
        4
176
     1
 64
     7
176
     1
 65
   257
176
     1
 75
     1
176
     1
175
     1
176
     1
 42
1.0
176
     1
 92
        8
176
     1
 66
     7
176
     1
 43
1.0
176
     1
 76
     1
176
     1
 77
     6
176
     1
 78
     2
176
     1
 67
     7
176
     1
 79
     5
176
     1
170
     0
176
     1
171
     0
176
     1
290
     0
176
     1
 93
        1
176
     1
 44
0.0
176
     1
173
     0
176
     1
  0
VISUALSTYLE
  5
2B
102
{ACAD_REACTORS
330
2A
102
}
330
2A
100
AcDbVisualStyle
  2
Flat
 70
     0
177
     2
291
     1
 71
     2
176
     1
 72
     1
176
     1
 73
     1
176
     1
 90
        2
176
     1
 40
-0.6
176
     1
 41
30.0
176
     1
 62
     5
 63
     7
421
 16777215
176
     1
 74
     0
176
     1
 91
        4
176
     1
 64
     7
176
     1
 65
   257
176
     1
 75
     1
176
     1
175
     1
176
     1
 42
1.0
176
     1
 92
        8
176
     1
 66
     7
176
     1
 43
1.0
176
     1
 76
     1
176
     1
 77
     6
176
     1
 78
     2
176
     1
 67
     7
176
     1
 79
     5
176
     1
170
     0
176
     1
171
     0
176
     1
290
     0
176
     1
 93
       13
176
     1
 44
0.0
176
     1
173
     0
176
     1
  0
VISUALSTYLE
  5
2C
102
{ACAD_REACTORS
330
2A
102
}
330
2A
100
AcDbVisualStyle
  2
FlatWithEdges
 70
     1
177
     2
291
     1
 71
     2
176
     1
 72
     1
176
     1
 73
     1
176
     1
 90
        2
176
     1
 40
-0.6
176
     1
 41
30.0
176
     1
 62
     5
 63
     7
421
 16777215
176
     1
 74
     1
176
     1
 91
        4
176
     1
 64
     7
176
     1
 65
   257
176
     1
 75
     1
176
     1
175
     1
176
     1
 42
1.0
176
     1
 92
        0
176
     1
 66
   257
176
     1
 43
1.0
176
     1
 76
     1
176
     1
 77
     6
176
     1
 78
     2
176
     1
 67
     7
176
     1
 79
     5
176
     1
170
     0
176
     1
171
     0
176
     1
290
     0
176
     1
 93
       13
176
     1
 44
0.0
176
     1
173
     0
176
     1
  0
VISUALSTYLE
  5
2D
102
{ACAD_REACTORS
330
2A
102
}
330
2A
100
AcDbVisualStyle
  2
Gouraud
 70
     2
177
     2
291
     1
 71
     2
176
     1
 72
     2
176
     1
 73
     1
176
     1
 90
        2
176
     1
 40
-0.6
176
     1
 41
30.0
176
     1
 62
     5
 63
     7
421
 16777215
176
     1
 74
     0
176
     1
 91
        4
176
     1
 64
     7
176
     1
 65
   257
176
     1
 75
     1
176
     1
175
     1
176
     1
 42
1.0
176
     1
 92
        0
176
     1
 66
     7
176
     1
 43
1.0
176
     1
 76
     1
176
     1
 77
     6
176
     1
 78
     2
176
     1
 67
     7
176
     1
 79
     5
176
     1
170
     0
176
     1
171
     0
176
     1
290
     0
176
     1
 93
       13
176
     1
 44
0.0
176
     1
173
     0
176
     1
  0
VISUALSTYLE
  5
2E
102
{ACAD_REACTORS
330
2A
102
}
330
2A
100
AcDbVisualStyle
  2
GouraudWithEdges
 70
     3
177
     2
291
     1
 71
     2
176
     1
 72
     2
176
     1
 73
     1
176
     1
 90
        2
176
     1
 40
-0.6
176
     1
 41
30.0
176
     1
 62
     5
 63
     7
421
 16777215
176
     1
 74
     1
176
     1
 91
        4
176
     1
 64
     7
176
     1
 65
   257
176
     1
 75
     1
176
     1
175
     1
176
     1
 42
1.0
176
     1
 92
        0
176
     1
 66
   257
176
     1
 43
1.0
176
     1
 76
     1
176
     1
 77
     6
176
     1
 78
     2
176
     1
 67
     7
176
     1
 79
     5
176
     1
170
     0
176
     1
171
     0
176
     1
290
     0
176
     1
 93
       13
176
     1
 44
0.0
176
     1
173
     0
176
     1
  0
VISUALSTYLE
  5
38
102
{ACAD_REACTORS
330
2A
102
}
330
2A
100
AcDbVisualStyle
  2
Linepattern
 70
    14
177
     2
291
     1
 71
     2
176
     1
 72
     2
176
     1
 73
     0
176
     1
 90
        0
176
     1
 40
-0.6
176
     1
 41
-30.0
176
     1
 62
     5
 63
     7
421
 16777215
176
     1
 74
     1
176
     1
 91
        4
176
     1
 64
     7
176
     1
 65
   257
176
     1
 75
     7
176
     1
175
     7
176
     1
 42
1.0
176
     1
 92
        8
176
     1
 66
     7
176
     1
 43
1.0
176
     1
 76
     1
176
     1
 77
     6
176
     1
 78
     2
176
     1
 67
     7
176
     1
 79
     5
176
     1
170
     0
176
     1
171
     0
176
     1
290
     0
176
     1
 93
        1
176
     1
 44
0.0
176
     1
173
     0
176
     1
  0
VISUALSTYLE
  5
33
102
{ACAD_REACTORS
330
2A
102
}
330
2A
100
AcDbVisualStyle
  2
Realistic
 70
     8
177
     2
291
     0
 71
     2
176
     1
 72
     2
176
     1
 73
     0
176
     1
 90
        0
176
     1
 40
-0.6
176
     1
 41
-30.0
176
     1
 62
     5
 63
     7
421
 16777215
176
     1
 74
     1
176
     1
 91
        0
176
     1
 64
     7
176
     1
 65
   257
176
     1
 75
     1
176
     1
175
     1
176
     1
 42
1.0
176
     1
 92
        8
176
     1
 66
     8
424
  7895160
176
     1
 43
1.0
176
     1
 76
     1
176
     1
 77
     6
176
     1
 78
     2
176
     1
 67
     7
176
     1
 79
     5
176
     1
170
     0
176
     1
171
     0
176
     1
290
     0
176
     1
 93
       13
176
     1
 44
0.0
176
     1
173
     0
176
     1
  0
VISUALSTYLE
  5
37
102
{ACAD_REACTORS
330
2A
102
}
330
2A
100
AcDbVisualStyle
  2
Thicken
 70
    13
177
     2
291
     1
 71
     2
176
     1
 72
     2
176
     1
 73
     0
176
     1
 90
        0
176
     1
 40
-0.6
176
     1
 41
-30.0
176
     1
 62
     5
 63
     7
421
 16777215
176
     1
 74
     1
176
     1
 91
        4
176
     1
 64
     7
176
     1
 65
   257
176
     1
 75
     1
176
     1
175
     1
176
     1
 42
1.0
176
     1
 92
       12
176
     1
 66
     7
176
     1
 43
1.0
176
     1
 76
     1
176
     1
 77
     6
176
     1
 78
     2
176
     1
 67
     7
176
     1
 79
     5
176
     1
170
     0
176
     1
171
     0
176
     1
290
     0
176
     1
 93
        1
176
     1
 44
0.0
176
     1
173
     0
176
     1
  0
ENDSEC
  0
EOF
